<svg width="192" height="192" viewBox="0 0 192 192" fill="none" xmlns="http://www.w3.org/2000/svg">
<rect width="192" height="192" fill="#F26A30"/>
<path d="M159.001 63.7627C149.085 66.2596 141.08 67.5734 130.338 68.8652C123.118 69.7334 115.744 70.3192 108.305 70.6211V82.7412C118.21 82.2704 128.304 81.2536 137.341 79.8672V101.164C127.493 102.675 118.146 103.527 108.305 103.888V119.987C109.001 121.067 110.018 122.404 111.428 123.737C115.651 127.729 121.556 130.296 128.805 130.681V152.479C113.64 151.675 102.783 145.605 96.7686 140.119C90.7579 145.606 79.9251 151.676 64.7598 152.48V130.682C72.3931 130.277 78.4861 127.497 82.748 123.108C85.3061 120.474 86.4003 117.902 86.415 117.862L87.3867 118.199V103.967C76.4013 103.652 66.1275 102.737 55.2529 101.048V79.8066C65.2313 81.3566 76.4904 82.4466 87.3867 82.8545V70.7158C78.9632 70.4508 70.61 69.822 62.4541 68.833C51.6308 67.5204 43.5745 66.1872 33.5967 63.6514V42.1152C42.7385 44.4386 54.9187 46.7092 64.8867 47.918C75.182 49.1665 85.8282 49.7998 96.5293 49.7998C107.144 49.7998 117.707 49.1769 127.925 47.9482C137.819 46.7582 149.914 44.4035 159.001 42.1152V63.7627Z" fill="white"/>
</svg>
