<svg width="16" height="16" viewBox="0 0 16 16" fill="none" xmlns="http://www.w3.org/2000/svg">
<g clip-path="url(#clip0_188_4643)">
<path d="M8.00098 0.733643C12.0141 0.733819 15.2676 3.98708 15.2676 8.00024C15.2674 12.0133 12.014 15.2667 8.00098 15.2668C3.98782 15.2668 0.734551 12.0134 0.734375 8.00024C0.734375 3.98698 3.98771 0.733643 8.00098 0.733643ZM1.96289 8.59985C2.21921 11.2111 4.13194 13.3345 6.63574 13.9104C5.55585 12.3414 4.90869 10.5096 4.76465 8.59985H1.96289ZM11.2373 8.59985C11.0933 10.5097 10.4452 12.3414 9.36523 13.9104C11.8692 13.3347 13.7817 11.2112 14.0381 8.59985H11.2373ZM5.96875 8.59985C6.12799 10.4749 6.83422 12.2607 8 13.7366C9.16609 12.2606 9.87395 10.4752 10.0332 8.59985H5.96875ZM9.36523 2.08911C10.4452 3.65808 11.0932 5.48988 11.2373 7.39966H14.0381C13.7816 4.78844 11.8691 2.66481 9.36523 2.08911ZM8 2.26196C6.83391 3.73788 6.12807 5.52437 5.96875 7.39966H10.0332C9.87387 5.52408 9.1664 3.73802 8 2.26196ZM6.63574 2.08911C4.13201 2.66492 2.21934 4.78853 1.96289 7.39966H4.76465C4.90874 5.48996 5.55582 3.65804 6.63574 2.08911Z" fill="#888787"/>
</g>
<defs>
<clipPath id="clip0_188_4643">
<rect width="16" height="16" fill="white"/>
</clipPath>
</defs>
</svg>
