<svg width="16" height="16" viewBox="0 0 16 16" fill="none" xmlns="http://www.w3.org/2000/svg">
<path d="M4.00098 5.39966C4.3322 5.39983 4.60059 5.66898 4.60059 6.00024V14.0002C4.60041 14.3314 4.33209 14.5997 4.00098 14.5999H1.33398C1.00272 14.5999 0.734551 14.3315 0.734375 14.0002V6.00024C0.734375 5.66887 1.00261 5.39966 1.33398 5.39966H4.00098ZM14.0674 9.33325C14.0674 8.43152 13.7089 7.56658 13.0713 6.92896C12.4337 6.29143 11.5687 5.93286 10.667 5.93286C9.76537 5.93295 8.90024 6.29141 8.2627 6.92896C7.62517 7.56656 7.26758 8.43159 7.26758 9.33325V13.3997H8.73438V9.33325C8.73438 8.82058 8.93734 8.32862 9.2998 7.96606C9.6623 7.60357 10.1544 7.39974 10.667 7.39966C11.1797 7.39966 11.6716 7.6036 12.0342 7.96606C12.3967 8.32863 12.6006 8.8205 12.6006 9.33325V13.3997H14.0674V9.33325ZM1.93359 13.3997H3.40039V6.59985H1.93359V13.3997ZM3.40039 2.66626C3.40021 2.2614 3.07189 1.93286 2.66699 1.93286C2.26224 1.93304 1.93377 2.26151 1.93359 2.66626C1.93359 3.07116 2.26213 3.39948 2.66699 3.39966C3.072 3.39966 3.40039 3.07127 3.40039 2.66626ZM15.2676 14.0002C15.2674 14.3315 14.9983 14.5999 14.667 14.5999H12.001C11.6697 14.5999 11.4006 14.3315 11.4004 14.0002V9.33325C11.4004 9.13876 11.3231 8.95222 11.1855 8.8147C11.048 8.67727 10.8614 8.59985 10.667 8.59985C10.4726 8.59994 10.2859 8.67725 10.1484 8.8147C10.011 8.95221 9.93359 9.13884 9.93359 9.33325V14.0002C9.93342 14.3315 9.66525 14.5999 9.33398 14.5999H6.66699C6.33588 14.5997 6.06756 14.3314 6.06738 14.0002V9.33325C6.06738 8.11326 6.55237 6.94299 7.41504 6.08032C8.2776 5.21794 9.44727 4.73373 10.667 4.73364C11.8869 4.73364 13.0573 5.21776 13.9199 6.08032C14.7826 6.94299 15.2676 8.11326 15.2676 9.33325V14.0002ZM4.60059 2.66626C4.60059 3.73401 3.73474 4.59985 2.66699 4.59985C1.59939 4.59968 0.734375 3.7339 0.734375 2.66626C0.734551 1.59877 1.5995 0.733818 2.66699 0.733643C3.73463 0.733643 4.60041 1.59866 4.60059 2.66626Z" fill="#888787"/>
</svg>
