<svg width="48" height="57" viewBox="0 0 48 57" fill="none" xmlns="http://www.w3.org/2000/svg">
<path d="M47.0586 57H0V0H47.0586V57ZM37.7568 16.5928C35.7415 17.1003 33.0588 17.6228 30.8643 17.8867C28.5982 18.1592 26.2546 18.2969 23.9004 18.2969C21.5273 18.2969 19.1659 18.1567 16.8828 17.8799C14.672 17.6118 11.97 17.1081 9.94238 16.5928V21.3691C12.1552 21.9315 13.9424 22.2275 16.3428 22.5186C18.1516 22.7379 20.0049 22.8768 21.873 22.9355V25.627C19.4565 25.5365 16.9591 25.2959 14.7461 24.9521V29.6641C17.1578 30.0387 19.4367 30.2397 21.873 30.3096V33.4678L21.6582 33.3936C21.6544 33.4036 21.411 33.9732 20.8447 34.5566C19.8995 35.53 18.5473 36.1464 16.8545 36.2363V41.0713C20.2186 40.8927 22.6212 39.5451 23.9541 38.3281C25.2879 39.5451 27.6954 40.8928 31.0596 41.0713V36.2363C29.4519 36.151 28.1418 35.5815 27.2051 34.6963C26.8908 34.3993 26.6662 34.1004 26.5117 33.8604V30.292C28.6946 30.212 30.7687 30.0246 32.9531 29.6895V24.9658C30.9486 25.2733 28.7088 25.4971 26.5117 25.6016V22.9141C28.1618 22.8471 29.7981 22.7189 31.3994 22.5264C33.7817 22.2399 35.5577 21.9483 37.7568 21.3945V16.5928Z" fill="#F26A30"/>
</svg>
