<svg width="106" height="59" viewBox="0 0 106 59" fill="none" xmlns="http://www.w3.org/2000/svg">
<path d="M51.2583 11.6269C51.3519 11.0408 50.9812 10.1171 52.1325 9.99288C52.6476 9.93855 53.8301 11.2892 53.8379 11.887C53.8457 12.3255 52.6008 13.4666 52.1168 13.4705C51.4885 13.4783 51.27 13.0319 51.2583 11.623V11.6269Z" fill="#888787"/>
<path d="M76.6839 6.79476C76.6917 5.97192 77.48 5.20343 78.2762 5.18402C79.0059 5.16461 79.5835 5.75069 79.5523 6.47649C79.5328 6.95777 78.2683 7.83882 77.5698 7.80389C76.918 7.77284 76.7268 7.29932 76.6839 6.79087V6.79476Z" fill="#888787"/>
<path fill-rule="evenodd" clip-rule="evenodd" d="M22.9606 0.829157C23.0582 0.262516 23.3744 -0.0750299 23.9519 0.0142373C24.5216 0.103576 24.7672 0.538183 24.697 1.08538C24.4941 2.68834 24.5643 4.33788 24.096 5.89038C23.5652 7.65635 23.4757 9.44965 23.4367 11.2544C23.265 19.2459 23.4364 27.2258 23.9828 35.2017C23.9867 35.2871 24.0376 35.3689 24.0571 35.431C24.26 35.4737 24.3147 35.3455 24.3811 35.2407C25.8328 33.0439 27.4993 31.0217 29.4038 29.1975C30.1335 28.4988 30.5276 27.7148 30.5627 26.6553C30.6525 24.1558 31.5151 21.8542 32.721 19.6807C32.9551 19.2615 33.2245 18.8384 33.564 18.5046C34.3796 17.6973 35.3942 17.9885 35.7337 19.083C36.0104 19.9814 35.7951 20.8498 35.5797 21.7176L35.5698 21.757C35.0234 23.95 34.0479 25.9412 32.721 27.7693C32.5336 28.0293 32.2723 28.3049 32.245 28.5921C32.2059 29.0618 32.1981 29.6246 32.604 29.9506C33.0332 30.2958 33.4782 29.9504 33.8567 29.733C35.5152 28.7899 36.7017 27.3693 37.5954 25.7354C39.8238 21.6523 41.4745 17.3594 42.1185 12.7213C42.4073 10.6449 42.7427 8.56852 43.3163 6.54648C43.4802 5.96817 43.7029 5.35479 44.4795 5.53333C45.2404 5.70411 45.1859 6.33673 45.1274 6.94219C44.8386 9.97348 44.0189 12.9041 43.4101 15.8771C42.8052 18.8268 42.5361 21.8269 43.0785 24.8348C43.3205 26.1816 43.8825 27.3577 44.9791 28.2271C45.8689 28.9296 46.5948 28.8755 47.387 28.0721C48.827 26.605 49.588 24.8118 49.8924 22.8168C50.0641 21.699 50.1889 20.5732 50.2865 19.4476C50.3451 18.8111 50.5636 18.33 51.2622 18.3882C51.8944 18.4425 52.0545 18.9316 52.0545 19.5215C52.0467 21.7532 52.066 23.9851 52.0777 26.213C52.0777 26.6321 52.0896 26.9774 52.5968 27.2219C53.2458 27.5311 53.0279 28.1367 52.8373 28.6668L52.835 28.6736C52.6204 29.2635 52.2652 29.7213 51.5667 29.6709C50.9423 29.6243 50.7041 29.1627 50.6261 28.6077C50.5519 28.1031 50.4934 27.5946 50.3997 26.896C49.9704 27.4975 49.6346 27.9826 49.2834 28.4561C47.3594 31.0255 44.7799 31.0138 42.8403 28.4405C41.7203 26.954 41.3807 25.2229 41.1817 23.4415C41.1544 23.2009 41.131 22.9562 41.0803 22.4711C40.3701 24.0741 39.7533 25.452 38.9533 26.7406C37.9191 28.4056 36.7445 29.9506 35.0313 30.9831C33.0137 32.1979 32.1509 32.0424 30.6992 30.3152C28.1001 32.7022 26.0396 35.4968 24.2873 38.6134C24.7048 38.8346 25.0249 38.6603 25.3487 38.5827C33.8876 36.4363 42.5244 34.7633 51.1726 33.1254C52.1062 32.9478 53.0442 32.7986 53.9833 32.6565L54.9227 32.5159C55.3403 32.4538 55.5354 32.2908 55.5939 31.8522C55.8866 29.7719 56.3669 27.7303 56.9796 25.5102C57.1419 23.8459 58.9022 20.9019 59.7621 19.6379C61.1865 18.8113 62.4468 19.3158 63.0908 20.8216C63.3561 21.4464 63.5279 22.0947 63.5942 22.7816C63.6684 23.5695 63.5282 24.408 64.0512 25.1183C64.1955 25.3124 64.0901 25.5532 64.0237 25.7744C63.6491 27.0086 63.2783 28.2468 62.9036 29.481C62.7319 30.0398 62.4041 30.4202 61.7641 30.2224C61.1241 30.0244 61.0771 29.5274 61.2489 28.9685C61.9006 26.8455 62.2908 24.6992 61.8342 22.4791C61.8225 22.417 61.8225 22.3471 61.803 22.2888C61.6352 21.7881 61.6782 21.0546 61.0187 20.977C60.3006 20.8916 60.1172 21.5785 59.9104 22.1296C58.802 25.0717 57.959 28.0876 57.3931 31.1771C57.2644 31.8757 57.323 32.1394 58.1855 31.9958C62.9622 31.2118 67.7468 30.49 72.5626 29.9699L72.5736 29.9688C72.9982 29.9228 73.3631 29.883 73.4056 29.2827C73.6124 26.4378 73.7686 23.6007 73.1598 20.7829C72.9959 20.0183 72.6875 19.304 72.3168 18.6209C71.6182 17.3324 71.224 17.2975 70.303 18.4075C69.3976 19.5021 68.8589 20.7869 68.5037 22.1376C68.0198 23.9811 67.5673 25.8324 67.4541 27.7458C67.419 28.328 67.1808 28.8018 66.5174 28.7358C65.8696 28.6737 65.6941 28.1768 65.7643 27.5907C66.0921 24.8932 66.5371 22.2189 67.5986 19.6883C68.0396 18.6365 68.6598 17.6894 69.4325 16.8433C70.6423 15.5159 72.1568 15.5705 73.2417 16.9949C74.4202 18.5396 74.8846 20.3404 75.0993 22.2267C75.3412 24.3575 75.3373 26.4883 75.1031 28.6153C75.0133 29.4226 75.2047 29.6828 76.0749 29.5935C84.7504 28.7203 93.4533 28.4017 102.172 28.4405C104.088 28.4483 104.447 28.0254 104.259 26.1197C104.037 23.8957 103.619 21.7104 103.155 19.5291C103.069 19.1216 102.917 18.718 102.738 18.3416C102.215 17.2393 101.586 16.9946 100.458 17.4759C98.6943 18.2288 96.9185 18.9314 95.0102 19.2535C93.0317 19.5912 91.9194 19.1605 90.9906 17.6624C89.0276 20.0648 86.4012 21.4503 83.4236 21.8268C81.8469 22.0247 80.7348 22.5412 79.7435 23.6435C79.3299 24.1015 78.7949 24.4392 78.2134 24.6604C77.0778 25.095 76.0828 24.5515 75.8916 23.3562C75.6067 21.567 75.8173 19.8632 76.9919 18.4C77.308 18.008 77.2962 17.6935 77.1402 17.2549C76.9372 16.6805 76.7581 16.0789 76.7034 15.4735C76.5512 13.9093 77.7061 12.9003 79.2866 13.1602C81.3042 13.494 82.721 15.0658 82.9083 17.1617C83.002 18.2018 82.8812 19.2149 82.5261 20.2007C83.0372 20.4025 83.4781 20.2474 83.9034 20.1155C85.0858 19.7545 86.2255 19.2886 87.3025 18.6793C88.4304 18.0428 89.3632 17.2314 89.9017 16.0166C90.0809 15.6146 90.3123 15.2312 90.5413 14.8518L90.5576 14.8249C90.8113 14.402 91.1782 14.1654 91.6972 14.278C92.2005 14.3867 92.3255 14.7941 92.3958 15.221C92.4777 15.6984 92.579 16.1759 92.5985 16.6572C92.6337 17.5614 93.219 17.6935 93.937 17.6586C95.619 17.5771 97.2349 17.15 98.7062 16.3854C102.738 14.2935 104.279 16.6261 104.911 19.603C105.403 21.9085 105.801 24.2333 105.984 26.5931C106.133 28.4949 105.224 29.7139 103.354 30.0128C102.547 30.1408 101.739 30.0592 100.931 30.067C92.5402 30.1523 84.161 30.424 75.8055 31.2469C75.0758 31.3206 74.8612 31.5885 74.7753 32.2832C74.0729 37.9266 72.7927 43.4148 70.2443 48.5497C69.3935 50.2652 68.4101 51.8992 66.9896 53.2266C64.6442 55.4156 61.7252 55.4079 59.4187 53.1724C57.6001 51.4103 56.7959 49.1203 56.1949 46.7527C55.2193 42.9258 55.0047 39.0287 55.2623 35.1047C55.3208 34.2045 55.0087 34.1579 54.2947 34.286C44.6045 36.0054 34.9531 37.9071 25.3956 40.2591C24.4279 40.4998 24.2248 40.9035 24.2404 41.831C24.3068 45.9374 24.3616 50.0478 23.4016 54.0843C23.0621 55.5126 22.5388 56.8711 21.4617 57.9345C20.7202 58.6681 19.8697 59.2269 18.7692 58.9087C17.6218 58.5787 17.3484 57.5696 17.1689 56.5643C16.7084 53.9873 17.1613 51.48 17.8442 49C18.453 46.7799 19.3468 44.6646 20.3108 42.5803C20.4396 42.3009 20.6774 42.0484 20.5955 41.6176C19.2139 41.8388 17.9142 42.3317 16.5835 42.7043C12.396 43.8803 8.20477 45.0528 4.03683 46.2986C3.10413 46.5781 2.17138 46.8187 1.22307 47.0127C0.641579 47.1292 0.138112 46.9699 0.0210343 46.3411C-0.095977 45.7163 0.286323 45.4408 0.891117 45.301C7.79482 43.7291 14.5036 41.443 21.3409 39.6265C22.3126 39.3665 22.4845 38.571 22.4416 37.7094C22.2972 34.8023 22.1253 31.8987 21.9926 28.9916C21.7585 23.8878 21.6336 18.78 21.7468 13.6723C21.7507 13.4472 21.7468 13.226 21.7468 12.9078C21.337 13.0824 21.294 13.424 21.1652 13.684C18.9837 18.1203 16.4666 22.3277 12.8333 25.7782C12.5796 26.0188 12.3102 26.2477 12.2399 26.6397C12.1306 27.2336 11.6117 27.3463 11.1278 27.4084C10.7024 27.4628 10.3707 27.2257 10.2029 26.8376C9.98051 26.3176 10.3198 25.9682 10.6476 25.6539C13.9219 22.4984 16.6577 18.9548 18.6792 14.8795C19.1982 13.8355 19.7213 12.7992 20.2364 11.7551C21.337 9.5351 22.1254 7.23342 22.1839 4.71841C22.2152 3.39101 22.7382 2.13327 22.9606 0.829157ZM22.5197 42.1558C21.1985 44.471 20.1928 46.8986 19.4559 49.4423C18.8081 51.6663 18.492 53.9252 18.8042 56.2346C18.8549 56.6227 18.8277 57.1932 19.3153 57.2864C19.729 57.364 20.0843 56.9874 20.3653 56.6769C21.2043 55.7648 21.5828 54.6277 21.8326 53.4517C22.6243 49.7317 22.6249 45.9534 22.5197 42.1558ZM73.1011 32.124C73.1557 31.6699 73.0309 31.5457 72.59 31.6077C71.7237 31.7358 70.8492 31.8174 69.9828 31.9416C65.9047 32.5316 61.8303 33.1332 57.7521 33.7231C57.2293 33.8007 56.9563 34.0025 56.9446 34.5846C56.925 35.7141 56.8352 36.8399 56.8001 37.4687C56.804 41.7109 57.4792 45.9258 58.5094 48.6232C58.9972 49.9002 59.6139 51.1072 60.6364 52.0542C62.2794 53.5796 64.1134 53.5837 65.7681 52.0895C66.8179 51.1425 67.5828 49.9817 68.2423 48.7514C71.0326 43.5504 72.383 37.9304 73.1011 32.124ZM22.5197 42.1494C22.5198 42.1515 22.5196 42.1537 22.5197 42.1558C22.5209 42.1537 22.5223 42.1515 22.5235 42.1494H22.5197ZM33.9699 21.0274C33.3767 22.1491 32.7953 23.2863 32.5533 24.6873C33.1581 23.9149 33.7201 22.4906 33.9699 21.0274ZM79.6147 21.0934C79.0567 20.7208 78.7169 19.7467 78.1589 19.8437C77.6555 19.9331 77.5578 20.8877 77.4603 21.5281C77.437 21.6862 77.4405 21.8481 77.429 22.0444L77.4428 22.1023C77.4932 22.4024 77.2956 22.8371 77.8079 22.9681C78.0231 23.0217 79.6649 21.5868 79.6929 21.3458C79.7007 21.2643 79.6732 21.1322 79.6147 21.0934ZM79.4741 14.9144C78.5414 14.6699 78.2137 14.9337 78.4439 15.8381C78.6117 16.4862 78.6468 17.2429 79.5053 17.5263C79.8527 17.6427 79.954 18.0467 79.8369 18.4504C79.8136 18.9045 80.3094 19.735 80.6411 19.6807C81.1795 19.5953 81.0666 19.0558 81.1914 18.6948C81.2421 18.5435 81.2615 18.3802 81.2771 18.2211C81.4098 16.7152 80.5824 15.2016 79.4741 14.9144Z" fill="#888787"/>
</svg>
