<svg width="44" height="44" viewBox="0 0 44 44" fill="none" xmlns="http://www.w3.org/2000/svg">
<g filter="url(#filter0_ii_187_4503)">
<rect width="44" height="44" rx="12" fill="url(#paint0_linear_187_4503)"/>
</g>
<g filter="url(#filter1_di_187_4503)">
<path d="M24.1215 11.1875C24.6266 11.251 25.1249 11.425 25.5908 11.6198C24.6723 12.3407 23.7128 12.9391 22.7127 13.5444C22.3769 13.7315 22.0613 13.9341 21.7373 14.1389C22.5092 13.0065 23.1422 12.1749 24.1215 11.1875Z" fill="#DBFCFE"/>
<path d="M32.5142 11.8819C32.9742 11.9099 33.5768 12.0491 33.9984 12.2311C33.2369 12.9451 32.1714 13.627 31.2942 14.2089L30.3201 14.8333C30.9307 13.7767 31.6994 12.7892 32.5142 11.8819Z" fill="#DBFCFE"/>
<path d="M22.6131 10.8403C22.9811 10.8648 23.3034 10.9057 23.664 10.9969L23.4203 11.3178C22.9696 11.8469 22.7714 11.2984 22.6131 10.8403Z" fill="#DBFCFE"/>
<path d="M31.0207 11.8859C31.3716 11.8741 31.7229 11.8886 32.0717 11.9293L31.8541 12.1995C31.4348 12.6422 31.2055 12.2807 31.0207 11.8859Z" fill="#DBFCFE"/>
<path fill-rule="evenodd" clip-rule="evenodd" d="M8.67054 10.9856C8.78423 10.9782 8.90086 10.9785 9.00978 11.0164C9.5668 11.2103 10.7915 13.8535 11.0747 14.454C10.4551 15.5547 11.2479 17.4362 12.0076 18.3305C12.6418 19.077 13.4648 19.1751 14.2 18.5086C14.4254 18.62 14.6396 18.6998 14.8735 18.7904C14.1266 19.4596 13.8831 20.2989 14.3567 21.2222C14.3653 20.1947 14.8176 19.163 15.9433 18.9415C16.5014 18.8317 16.5981 18.8726 17.0039 18.4391C16.0639 18.4047 15.5766 18.45 14.6619 17.9985C13.8921 17.6874 13.0818 16.3043 14.526 16.3395C15.3194 16.3587 17.5144 16.3191 18.1231 16.7926C19.3772 17.7682 19.8308 19.7267 19.2113 21.1752C18.9702 21.7389 18.8135 21.997 18.4354 22.5042C18.8319 22.3679 19.0595 22.2011 19.3723 21.9426C19.61 22.2033 20.239 22.8199 20.5068 22.1257C20.6261 21.8166 20.3707 21.3977 20.2028 21.1293C20.5818 19.3113 20.4322 18.2277 19.3628 16.6433C19.1859 16.3811 18.7782 16.0696 18.6755 15.8342C18.118 14.5565 17.87 13.0674 17.7146 11.694C18.0804 11.6335 18.4467 11.5505 18.8094 11.4724C19.0187 11.5814 19.0888 11.6251 19.2557 11.7893C19.285 11.956 19.3091 12.239 19.3208 12.4149C19.4997 15.0859 22.0749 16.9217 24.6332 15.7973C25.7874 15.29 26.5631 14.1074 26.9896 12.9264C27.4667 12.5869 27.7484 12.5346 28.1376 13.0278C28.1782 13.3204 28.2399 13.6098 28.3223 13.8936C28.9213 16.0109 30.5734 17.5024 32.9627 16.9123C33.9343 16.6723 34.6725 15.8703 35.1425 15.017C35.6095 16.8204 35.7103 18.836 35.7433 20.6973C35.8024 24.0324 35.472 27.3461 34.7097 30.5992C34.6826 30.6737 34.6597 30.7914 34.6385 30.8723C34.3598 31.9367 34.0517 33.0536 33.5621 34.0398C33.2447 34.6792 32.7136 35.506 31.997 35.719C31.1199 35.9793 31.6112 34.9933 31.7121 34.6505C31.9757 33.7735 31.978 32.8397 31.7187 31.9614C31.6866 32.1018 31.6519 32.2416 31.6145 32.3806C31.0911 34.306 29.7816 36.1214 28.0274 37.1421C27.0741 37.697 25.2807 38.2207 24.5535 37.0334C24.3952 36.7621 24.3686 36.309 24.4506 36.0102C24.7316 34.9857 25.2755 34.0225 25.587 33.002C24.5197 34.2917 23.4988 35.2317 21.9273 35.9223C20.9004 36.3644 19.4144 36.7346 18.3349 36.2718C15.5432 35.0749 18.0826 32.2519 18.7443 30.6693C17.126 32.3348 14.9306 33.5673 12.5218 32.9538C11.5528 32.7071 10.0373 31.8012 10.6291 30.629C10.7208 30.4475 11.5435 29.8735 11.7416 29.7065C13.0707 28.5707 14.034 27.0719 14.5118 25.3968C15.9845 26.251 17.765 26.3124 19.1286 25.2033C17.1754 25.7531 15.4264 25.2962 14.1613 23.6732C14.7817 23.7381 15.2636 23.6528 15.8545 23.4872C14.4898 23.397 13.6052 22.9981 12.6495 22.007C11.3188 20.6269 10.5067 18.6165 10.5488 16.7003C10.4463 16.5363 10.3455 16.3711 10.2467 16.2048C9.52375 14.984 8.80954 13.6618 8.37333 12.3118C8.20362 11.7867 8.13425 11.297 8.67054 10.9856ZM25.2088 16.3162C25.014 16.5279 25.005 17.1312 25.0133 17.4039C25.0677 19.184 26.6581 20.6247 28.1745 19.0524C28.5993 18.5074 28.973 17.6717 29.0131 16.9448C29.0152 16.9067 28.9802 16.7962 28.9417 16.7826C27.9911 16.4497 26.1076 16.4131 25.2088 16.3162Z" fill="url(#paint1_linear_187_4503)"/>
<path d="M12.2064 14.5075C12.9121 14.5672 13.1226 15.5585 13.3325 16.1285C12.7966 16.8437 13.1569 17.4885 13.6573 18.0932C13.5059 18.2302 13.4434 18.2587 13.2562 18.3222C12.3139 18.1792 11.8513 16.8566 11.618 16.0586C11.4251 15.3988 11.4122 14.6971 12.2064 14.5075Z" fill="url(#paint2_linear_187_4503)"/>
<path d="M15.8216 9.59126C16.0001 9.58314 16.0594 9.57698 16.2276 9.66518C16.4505 9.78205 16.578 10.1472 16.6411 10.3806C16.815 11.0232 16.8459 11.7323 16.9492 12.3917C17.1347 13.5742 17.3433 14.7201 17.6739 15.8723C17.5183 15.8482 17.3518 15.8297 17.1948 15.8093C16.8152 15.7486 16.3119 15.7355 15.9188 15.716C15.4617 14.2049 15.0515 11.8797 15.3462 10.3053C15.4051 9.99073 15.5438 9.7577 15.8216 9.59126Z" fill="url(#paint3_linear_187_4503)"/>
<path d="M14.0601 13.9401C14.976 13.9948 15.0631 14.9741 15.256 15.7076C15.0195 15.7045 14.7715 15.7137 14.5341 15.7187C14.2457 15.7389 14.1186 15.7527 13.839 15.8252C13.5714 15.1196 12.8956 14.1531 14.0601 13.9401Z" fill="url(#paint4_linear_187_4503)"/>
<path d="M24.4971 6.52851C25.7656 6.44127 26.8793 6.54936 28.0918 6.92049C30.4574 7.6546 32.4326 9.29121 33.5831 11.4706C32.7213 11.3066 31.5729 11.2588 30.7004 11.3161C29.4155 11.4006 28.005 11.8224 26.7457 11.3358C23.9074 10.199 21.3112 9.88715 18.3312 10.5974C18.1389 10.6432 17.9239 10.6777 17.7277 10.7161C17.9406 10.3505 18.1842 10.0034 18.4558 9.67855C19.966 7.87095 22.1408 6.73692 24.4971 6.52851Z" fill="url(#paint5_linear_187_4503)"/>
</g>
<defs>
<filter id="filter0_ii_187_4503" x="-1" y="-0.5" width="46" height="45" filterUnits="userSpaceOnUse" color-interpolation-filters="sRGB">
<feFlood flood-opacity="0" result="BackgroundImageFix"/>
<feBlend mode="normal" in="SourceGraphic" in2="BackgroundImageFix" result="shape"/>
<feColorMatrix in="SourceAlpha" type="matrix" values="0 0 0 0 0 0 0 0 0 0 0 0 0 0 0 0 0 0 127 0" result="hardAlpha"/>
<feOffset dx="1" dy="0.5"/>
<feGaussianBlur stdDeviation="2"/>
<feComposite in2="hardAlpha" operator="arithmetic" k2="-1" k3="1"/>
<feColorMatrix type="matrix" values="0 0 0 0 0.541916 0 0 0 0 0.864045 0 0 0 0 0.998498 0 0 0 1 0"/>
<feBlend mode="normal" in2="shape" result="effect1_innerShadow_187_4503"/>
<feColorMatrix in="SourceAlpha" type="matrix" values="0 0 0 0 0 0 0 0 0 0 0 0 0 0 0 0 0 0 127 0" result="hardAlpha"/>
<feOffset dx="-1" dy="-0.5"/>
<feGaussianBlur stdDeviation="2"/>
<feComposite in2="hardAlpha" operator="arithmetic" k2="-1" k3="1"/>
<feColorMatrix type="matrix" values="0 0 0 0 0.0930364 0 0 0 0 0.728686 0 0 0 0 1 0 0 0 1 0"/>
<feBlend mode="normal" in2="effect1_innerShadow_187_4503" result="effect2_innerShadow_187_4503"/>
</filter>
<filter id="filter1_di_187_4503" x="7.25" y="6" width="29.5" height="33.25" filterUnits="userSpaceOnUse" color-interpolation-filters="sRGB">
<feFlood flood-opacity="0" result="BackgroundImageFix"/>
<feColorMatrix in="SourceAlpha" type="matrix" values="0 0 0 0 0 0 0 0 0 0 0 0 0 0 0 0 0 0 127 0" result="hardAlpha"/>
<feOffset dy="0.5"/>
<feGaussianBlur stdDeviation="0.5"/>
<feComposite in2="hardAlpha" operator="out"/>
<feColorMatrix type="matrix" values="0 0 0 0 0.00392157 0 0 0 0 0.415686 0 0 0 0 0.843137 0 0 0 1 0"/>
<feBlend mode="normal" in2="BackgroundImageFix" result="effect1_dropShadow_187_4503"/>
<feBlend mode="normal" in="SourceGraphic" in2="effect1_dropShadow_187_4503" result="shape"/>
<feColorMatrix in="SourceAlpha" type="matrix" values="0 0 0 0 0 0 0 0 0 0 0 0 0 0 0 0 0 0 127 0" result="hardAlpha"/>
<feOffset dy="-0.5"/>
<feGaussianBlur stdDeviation="1"/>
<feComposite in2="hardAlpha" operator="arithmetic" k2="-1" k3="1"/>
<feColorMatrix type="matrix" values="0 0 0 0 0.541176 0 0 0 0 0.815686 0 0 0 0 1 0 0 0 1 0"/>
<feBlend mode="normal" in2="shape" result="effect2_innerShadow_187_4503"/>
</filter>
<linearGradient id="paint0_linear_187_4503" x1="22" y1="0" x2="22" y2="44" gradientUnits="userSpaceOnUse">
<stop stop-color="#01B5FF"/>
<stop offset="1" stop-color="#007BF6"/>
</linearGradient>
<linearGradient id="paint1_linear_187_4503" x1="22" y1="6.5" x2="22" y2="37.75" gradientUnits="userSpaceOnUse">
<stop stop-color="#FAFFFF"/>
<stop offset="1" stop-color="#C0E4FF"/>
</linearGradient>
<linearGradient id="paint2_linear_187_4503" x1="22" y1="6.5" x2="22" y2="37.75" gradientUnits="userSpaceOnUse">
<stop stop-color="#FAFFFF"/>
<stop offset="1" stop-color="#C0E4FF"/>
</linearGradient>
<linearGradient id="paint3_linear_187_4503" x1="22" y1="6.5" x2="22" y2="37.75" gradientUnits="userSpaceOnUse">
<stop stop-color="#FAFFFF"/>
<stop offset="1" stop-color="#C0E4FF"/>
</linearGradient>
<linearGradient id="paint4_linear_187_4503" x1="22" y1="6.5" x2="22" y2="37.75" gradientUnits="userSpaceOnUse">
<stop stop-color="#FAFFFF"/>
<stop offset="1" stop-color="#C0E4FF"/>
</linearGradient>
<linearGradient id="paint5_linear_187_4503" x1="22" y1="6.5" x2="22" y2="37.75" gradientUnits="userSpaceOnUse">
<stop stop-color="#FAFFFF"/>
<stop offset="1" stop-color="#C0E4FF"/>
</linearGradient>
</defs>
</svg>
