<svg width="141" height="145" viewBox="0 0 141 145" fill="none" xmlns="http://www.w3.org/2000/svg">
<rect x="0.5" y="0.5" width="140" height="144" rx="19.5" fill="#15131F"/>
<rect x="0.5" y="0.5" width="140" height="144" rx="19.5" stroke="#541B9A"/>
<g filter="url(#filter0_i_10_609)">
<rect x="27" y="49" width="87" height="46" rx="23" fill="url(#paint0_linear_10_609)"/>
<rect x="27.5" y="49.5" width="86" height="45" rx="22.5" stroke="#4C198C"/>
<path d="M48.184 78.256C46.072 78.256 44.296 77.456 43.752 75.568L45.128 75.072C45.48 76.496 46.808 76.96 48.232 76.96C49.8 76.96 51.208 76.4 51.208 74.992C51.208 73.536 49.64 73.104 47.96 72.752C46.088 72.368 44.04 71.84 44.04 69.632C44.04 67.504 45.992 66.448 48.264 66.448C50.168 66.448 51.688 67.216 52.248 69.12L50.888 69.632C50.536 68.128 49.464 67.728 48.2 67.728C46.808 67.728 45.496 68.224 45.496 69.52C45.496 70.816 46.888 71.152 48.44 71.424C50.424 71.776 52.648 72.4 52.648 74.912C52.648 77.168 50.664 78.256 48.184 78.256ZM55.7449 68.304H54.3849V66.704H55.7449V68.304ZM55.7449 78H54.3849V69.84H55.7449V78ZM63.6121 70.976V69.84H64.9721V77.44C64.9721 79.92 63.5641 81.36 61.3241 81.36C59.3721 81.36 58.1721 80.448 57.7721 78.928L59.0841 78.56C59.3721 79.568 60.1881 80.16 61.2281 80.16C62.7161 80.16 63.6121 79.2 63.6121 77.472C63.6121 77.264 63.6121 76.992 63.6281 76.688C63.1001 77.52 62.1401 78 61.1001 78C58.9881 78 57.4041 76.32 57.4041 73.856C57.4041 71.328 58.9881 69.648 61.1161 69.648C62.1241 69.648 63.0841 70.144 63.6121 70.976ZM61.2441 76.8C62.6201 76.8 63.6281 75.632 63.6281 73.888C63.6281 72.064 62.6201 70.848 61.2441 70.848C59.8361 70.848 58.8441 72.064 58.8441 73.824C58.8441 75.616 59.8201 76.8 61.2441 76.8ZM67.088 69.84H68.448V71.2H69.808V72.56H68.448V78H67.088V69.84ZM69.808 69.84H73.072V71.2H69.808V69.84ZM73.072 71.2H74.432V78H73.072V71.2ZM86.3688 74.128V69.84H87.7288V78H86.4488V76.672C85.9528 77.6 85.0248 78.192 83.8888 78.192C82.0008 78.192 80.9768 77.04 80.9768 74.864V69.84H82.3368V74.848C82.3368 76.288 82.9448 76.992 84.0807 76.992C85.4728 76.992 86.3688 75.872 86.3688 74.128ZM93.726 69.648C95.822 69.648 97.342 71.44 97.342 73.904C97.342 76.368 95.806 78.192 93.742 78.192C92.638 78.192 91.662 77.632 91.134 76.72V81.264H89.774V69.84H91.134V71.088C91.646 70.176 92.654 69.648 93.726 69.648ZM93.518 76.992C94.91 76.992 95.902 75.712 95.902 73.92C95.902 72.112 94.91 70.848 93.518 70.848C92.094 70.848 91.118 72.08 91.118 73.92C91.118 75.744 92.174 76.992 93.518 76.992Z" fill="white"/>
</g>
<defs>
<filter id="filter0_i_10_609" x="27" y="49" width="87" height="47" filterUnits="userSpaceOnUse" color-interpolation-filters="sRGB">
<feFlood flood-opacity="0" result="BackgroundImageFix"/>
<feBlend mode="normal" in="SourceGraphic" in2="BackgroundImageFix" result="shape"/>
<feColorMatrix in="SourceAlpha" type="matrix" values="0 0 0 0 0 0 0 0 0 0 0 0 0 0 0 0 0 0 127 0" result="hardAlpha"/>
<feOffset dy="1"/>
<feGaussianBlur stdDeviation="1"/>
<feComposite in2="hardAlpha" operator="arithmetic" k2="-1" k3="1"/>
<feColorMatrix type="matrix" values="0 0 0 0 0.170776 0 0 0 0 0.0469117 0 0 0 0 0.324031 0 0 0 0.5 0"/>
<feBlend mode="normal" in2="shape" result="effect1_innerShadow_10_609"/>
</filter>
<linearGradient id="paint0_linear_10_609" x1="70.5" y1="49" x2="70.5" y2="95" gradientUnits="userSpaceOnUse">
<stop stop-color="#5B1EA7"/>
<stop offset="1" stop-color="#380F6C"/>
</linearGradient>
</defs>
</svg>
