<svg width="24" height="24" viewBox="0 0 24 24" fill="none" xmlns="http://www.w3.org/2000/svg">
<path fill-rule="evenodd" clip-rule="evenodd" d="M1.29297 5.29297L5.29297 1.29297L6.70718 2.70718L2.70718 6.70718L1.29297 5.29297ZM21.293 6.70718L17.293 2.70718L18.7072 1.29297L22.7072 5.29297L21.293 6.70718ZM2.00008 13.0001C2.00008 7.47723 6.47723 3.00008 12.0001 3.00008C17.5229 3.00008 22.0001 7.47723 22.0001 13.0001C22.0001 18.5229 17.5229 23.0001 12.0001 23.0001C6.47723 23.0001 2.00008 18.5229 2.00008 13.0001ZM16.1573 15.7779C16.7068 14.9557 17 13.989 17 13.0001H12V8.00008C11.0111 8.00008 10.0444 8.29332 9.22215 8.84273C8.3999 9.39214 7.75904 10.173 7.3806 11.0867C7.00216 12.0003 6.90315 13.0056 7.09607 13.9755C7.289 14.9454 7.7652 15.8363 8.46447 16.5356C9.16373 17.2349 10.0546 17.7111 11.0245 17.904C11.9945 18.0969 12.9998 17.9979 13.9134 17.6195C14.827 17.241 15.6079 16.6002 16.1573 15.7779Z" fill="#B5B5B5"/>
</svg>
