<svg width="302" height="104" viewBox="0 0 302 104" fill="none" xmlns="http://www.w3.org/2000/svg">
<g filter="url(#filter0_dd_26_43)">
<path d="M180.51 37.0697C180.344 36.9481 180.211 36.7932 180.117 36.6052C180.017 36.4172 179.973 36.2237 179.973 36.0191C179.973 35.809 180.029 35.6099 180.139 35.433C180.25 35.256 180.427 35.1178 180.664 35.0072C181.101 34.8302 181.422 34.6588 181.627 34.4929C181.826 34.327 181.969 34.1114 182.047 33.8349C182.124 33.564 182.163 33.1658 182.163 32.635V31.3356C182.163 30.9596 182.113 30.6167 182.025 30.3015C181.931 29.9864 181.765 29.6103 181.522 29.168C180.521 27.3543 179.564 25.7286 178.657 24.2799C178.37 23.8209 178.132 23.4836 177.955 23.268C177.778 23.0523 177.579 22.8754 177.369 22.7427C177.159 22.61 176.849 22.4662 176.445 22.3058C176.213 22.2118 176.031 22.0625 175.898 21.8579C175.765 21.6589 175.704 21.4377 175.704 21.1999C175.704 21.0009 175.754 20.8128 175.854 20.6359C175.953 20.459 176.108 20.3152 176.318 20.2046C176.523 20.094 176.777 20.0387 177.076 20.0332C178.099 20.0277 178.889 20.0221 179.448 20.0221C179.885 20.0221 180.687 20.0277 181.853 20.0332H182.152C182.401 20.0332 182.616 20.094 182.804 20.2046C182.992 20.3207 183.136 20.47 183.236 20.6525C183.335 20.835 183.385 21.0285 183.385 21.2331C183.385 21.4045 183.346 21.5704 183.28 21.7252C183.208 21.8801 183.103 22.0183 182.965 22.1289C182.699 22.3224 182.506 22.4938 182.395 22.6431C182.285 22.7924 182.229 22.9473 182.229 23.1131C182.229 23.2293 182.251 23.3564 182.301 23.4891C182.345 23.6219 182.423 23.7877 182.522 23.9757C182.959 24.8052 183.435 25.6236 183.955 26.4309C184.021 26.5415 184.104 26.6299 184.198 26.6852C184.286 26.7405 184.38 26.7682 184.48 26.7682C184.579 26.7682 184.679 26.7405 184.778 26.6742C184.878 26.6078 184.966 26.5138 185.044 26.3866C185.553 25.5683 186.017 24.7609 186.437 23.9757C186.548 23.7656 186.625 23.5942 186.681 23.4615C186.73 23.3288 186.758 23.2127 186.758 23.1076C186.758 22.9528 186.697 22.8035 186.581 22.6597C186.465 22.5159 186.26 22.3279 185.967 22.0902C185.835 21.9685 185.729 21.8358 185.663 21.681C185.597 21.5317 185.564 21.3769 185.564 21.211C185.564 21.0174 185.608 20.835 185.707 20.658C185.801 20.4866 185.94 20.3428 186.122 20.2322C186.305 20.1217 186.52 20.0664 186.769 20.0553C187.433 20.0387 188.057 20.0277 188.644 20.0277C189.279 20.0277 189.965 20.0387 190.706 20.0553C190.972 20.0664 191.204 20.1217 191.403 20.2322C191.596 20.3428 191.746 20.4866 191.845 20.658C191.945 20.835 192 21.0174 192 21.211C192 21.4432 191.923 21.6644 191.779 21.869C191.635 22.0791 191.419 22.2339 191.143 22.3445C190.778 22.4883 190.496 22.6321 190.286 22.7758C190.076 22.9196 189.871 23.1242 189.678 23.3841C189.484 23.644 189.235 24.0421 188.926 24.5729L188.068 26.0327C187.316 27.3045 186.725 28.3164 186.294 29.074C186.061 29.4887 185.895 29.8481 185.807 30.1578C185.713 30.4674 185.669 30.7992 185.669 31.142V32.635C185.669 33.188 185.702 33.6027 185.779 33.8681C185.851 34.139 185.984 34.3492 186.183 34.4929C186.382 34.6422 186.703 34.7971 187.156 34.9574C187.41 35.0569 187.598 35.1952 187.726 35.3832C187.853 35.5712 187.919 35.7758 187.919 35.997C187.919 36.2016 187.864 36.3951 187.764 36.5831C187.665 36.7711 187.521 36.9259 187.344 37.0476C187.162 37.1692 186.957 37.2356 186.725 37.2411C185.929 37.2688 185.044 37.2798 184.076 37.2798C183.147 37.2798 182.141 37.2743 181.063 37.2522C180.858 37.2522 180.675 37.1914 180.51 37.0697Z" fill="white"/>
</g>
<g filter="url(#filter1_dd_26_43)">
<path d="M162.19 37.125C162.002 37.0089 161.858 36.8596 161.759 36.6716C161.659 36.4891 161.61 36.2956 161.61 36.091C161.61 35.8919 161.659 35.7094 161.77 35.5325C161.875 35.3611 162.035 35.2228 162.246 35.1233C162.633 34.9519 162.909 34.7749 163.086 34.598C163.263 34.4211 163.379 34.1778 163.445 33.857C163.512 33.5363 163.551 33.0497 163.562 32.3862C163.578 30.9596 163.589 29.5385 163.589 28.1229C163.589 26.9451 163.584 25.7286 163.573 24.4789C163.562 24.0421 163.523 23.6993 163.451 23.456C163.374 23.2127 163.241 22.9915 163.042 22.7924C162.843 22.5934 162.533 22.3556 162.102 22.0736C161.936 21.963 161.814 21.8303 161.731 21.6699C161.643 21.5096 161.604 21.3382 161.604 21.1612C161.604 20.9732 161.654 20.7907 161.753 20.6193C161.853 20.4479 161.997 20.3097 162.185 20.1991C162.373 20.094 162.599 20.0387 162.865 20.0332C163.562 20.0277 164.12 20.0221 164.529 20.0221L167.3 20.0277H168.079C169.506 20.0277 170.744 20.2488 171.784 20.6912C172.824 21.1336 173.609 21.7252 174.151 22.4717C174.693 23.2182 174.963 24.0421 174.963 24.9434C174.963 25.7286 174.77 26.4806 174.388 27.1995C174.001 27.9183 173.426 28.5431 172.663 29.0629C172.492 29.1846 172.365 29.3062 172.287 29.4279C172.21 29.5495 172.171 29.6712 172.171 29.8039C172.171 30.0029 172.265 30.2407 172.453 30.5117C172.884 31.1531 173.227 31.6508 173.482 32.0046C173.736 32.3585 174.023 32.7511 174.344 33.1714L174.67 33.6082C174.892 33.9123 175.085 34.1446 175.251 34.2994C175.417 34.4598 175.583 34.5814 175.76 34.6643C175.931 34.7473 176.158 34.8247 176.44 34.8911C176.777 34.9851 177.032 35.1399 177.208 35.3611C177.38 35.5823 177.468 35.82 177.468 36.0854C177.468 36.29 177.419 36.4836 177.319 36.6605C177.22 36.843 177.076 36.9868 176.888 37.0973C176.7 37.2079 176.484 37.2632 176.235 37.2632H174.444C174.046 37.2632 173.708 37.2245 173.437 37.1471C173.166 37.0697 172.923 36.9425 172.713 36.7656C172.497 36.5886 172.282 36.3453 172.066 36.0246C171.734 35.5435 171.336 34.9408 170.866 34.222C170.009 32.9336 169.379 31.9991 168.975 31.413C168.776 31.1365 168.616 30.9264 168.488 30.7716C168.356 30.6167 168.229 30.5006 168.107 30.4177C167.98 30.3347 167.847 30.2905 167.714 30.2905H167.648C167.515 30.296 167.41 30.3347 167.333 30.4011C167.255 30.4674 167.194 30.5891 167.15 30.755C167.106 30.9209 167.078 31.1586 167.073 31.4572C167.056 31.8277 167.051 32.1429 167.051 32.3972C167.051 32.5797 167.051 32.718 167.056 32.812C167.067 33.376 167.112 33.7796 167.178 34.0229C167.244 34.2718 167.377 34.4653 167.565 34.598C167.753 34.7362 168.085 34.8855 168.56 35.0514C168.793 35.1399 168.975 35.2781 169.097 35.4661C169.218 35.6541 169.279 35.8532 169.279 36.0744C169.279 36.2845 169.229 36.478 169.13 36.666C169.03 36.854 168.887 37.0033 168.699 37.1195C168.511 37.2411 168.295 37.3019 168.046 37.3019C167.482 37.3075 166.619 37.3075 165.453 37.3075C164.28 37.3075 163.407 37.3075 162.837 37.3019C162.594 37.3019 162.378 37.2411 162.19 37.125ZM167.272 27.7414C167.421 27.9073 167.642 27.9847 167.935 27.9791C168.721 27.9791 169.351 27.8409 169.827 27.5589C170.302 27.2824 170.645 26.9285 170.844 26.5027C171.043 26.0825 171.143 25.6291 171.143 25.148C171.143 24.5951 171.01 24.1085 170.75 23.6882C170.49 23.268 170.125 22.9362 169.655 22.704C169.18 22.4717 168.638 22.3501 168.018 22.3501C167.781 22.3501 167.593 22.3888 167.454 22.4551C167.311 22.527 167.211 22.6376 167.145 22.7924C167.078 22.9473 167.045 23.1574 167.045 23.4228C167.04 23.7877 167.04 24.3683 167.04 25.1591C167.04 25.9664 167.04 26.5636 167.045 26.9562C167.045 27.3156 167.123 27.5755 167.272 27.7414Z" fill="white"/>
</g>
<g filter="url(#filter2_dd_26_43)">
<path d="M146.619 37.125C146.431 37.0089 146.287 36.8596 146.188 36.6716C146.088 36.4891 146.038 36.2956 146.038 36.091C146.038 35.8919 146.088 35.7094 146.199 35.5325C146.304 35.3611 146.464 35.2228 146.674 35.1233C147.061 34.9519 147.338 34.7749 147.515 34.598C147.692 34.4211 147.808 34.1778 147.874 33.857C147.941 33.5363 147.979 33.0497 147.99 32.3862C148.007 30.9596 148.018 29.5385 148.018 28.1229C148.018 26.9451 148.012 25.7286 148.001 24.4789C147.99 24.0421 147.952 23.6993 147.88 23.456C147.802 23.2127 147.67 22.9915 147.471 22.7924C147.272 22.5934 146.962 22.3556 146.531 22.0736C146.365 21.963 146.243 21.8303 146.16 21.6699C146.072 21.5096 146.033 21.3382 146.033 21.1612C146.033 20.9732 146.083 20.7907 146.182 20.6193C146.282 20.4479 146.426 20.3097 146.614 20.1991C146.802 20.094 147.028 20.0387 147.294 20.0332C147.99 20.0277 148.549 20.0221 148.958 20.0221L151.728 20.0277H152.508C153.935 20.0277 155.173 20.2488 156.213 20.6912C157.252 21.1336 158.038 21.7252 158.579 22.4717C159.121 23.2182 159.392 24.0421 159.392 24.9434C159.392 25.7286 159.199 26.4806 158.817 27.1995C158.43 27.9183 157.855 28.5431 157.092 29.0629C156.921 29.1846 156.793 29.3062 156.716 29.4279C156.639 29.5495 156.6 29.6712 156.6 29.8039C156.6 30.0029 156.694 30.2407 156.882 30.5117C157.313 31.1531 157.656 31.6508 157.91 32.0046C158.165 32.3585 158.452 32.7511 158.773 33.1714L159.099 33.6082C159.32 33.9123 159.514 34.1446 159.68 34.2994C159.846 34.4598 160.012 34.5814 160.189 34.6643C160.36 34.7473 160.587 34.8247 160.869 34.8911C161.206 34.9851 161.46 35.1399 161.637 35.3611C161.809 35.5823 161.897 35.82 161.897 36.0854C161.897 36.29 161.847 36.4836 161.748 36.6605C161.648 36.843 161.505 36.9868 161.317 37.0973C161.129 37.2079 160.913 37.2632 160.664 37.2632H158.873C158.474 37.2632 158.137 37.2245 157.866 37.1471C157.595 37.0697 157.352 36.9425 157.142 36.7656C156.926 36.5886 156.71 36.3453 156.495 36.0246C156.163 35.5435 155.765 34.9408 155.295 34.222C154.438 32.9336 153.807 31.9991 153.404 31.413C153.205 31.1365 153.044 30.9264 152.917 30.7716C152.784 30.6167 152.657 30.5006 152.536 30.4177C152.408 30.3347 152.276 30.2905 152.143 30.2905H152.077C151.944 30.296 151.839 30.3347 151.762 30.4011C151.684 30.4674 151.623 30.5891 151.579 30.755C151.535 30.9209 151.507 31.1586 151.502 31.4572C151.485 31.8277 151.48 32.1429 151.48 32.3972C151.48 32.5797 151.48 32.718 151.485 32.812C151.496 33.376 151.54 33.7796 151.607 34.0229C151.673 34.2718 151.806 34.4653 151.994 34.598C152.182 34.7362 152.514 34.8855 152.989 35.0514C153.221 35.1399 153.404 35.2781 153.525 35.4661C153.647 35.6541 153.708 35.8532 153.708 36.0744C153.708 36.2845 153.658 36.478 153.559 36.666C153.459 36.854 153.315 37.0033 153.127 37.1195C152.939 37.2411 152.724 37.3019 152.475 37.3019C151.911 37.3075 151.048 37.3075 149.881 37.3075C148.709 37.3075 147.836 37.3075 147.266 37.3019C147.023 37.3019 146.807 37.2411 146.619 37.125ZM151.701 27.7414C151.85 27.9073 152.071 27.9847 152.364 27.9791C153.149 27.9791 153.78 27.8409 154.255 27.5589C154.731 27.2824 155.074 26.9285 155.273 26.5027C155.472 26.0825 155.571 25.6291 155.571 25.148C155.571 24.5951 155.439 24.1085 155.179 23.6882C154.919 23.268 154.554 22.9362 154.084 22.704C153.608 22.4717 153.066 22.3501 152.447 22.3501C152.209 22.3501 152.021 22.3888 151.883 22.4551C151.739 22.527 151.64 22.6376 151.574 22.7924C151.507 22.9473 151.474 23.1574 151.474 23.4228C151.468 23.7877 151.468 24.3683 151.468 25.1591C151.468 25.9664 151.468 26.5636 151.474 26.9562C151.474 27.3156 151.551 27.5755 151.701 27.7414Z" fill="white"/>
</g>
<g filter="url(#filter3_dd_26_43)">
<path d="M141.952 37.3462H141.814C140.05 37.3406 138.789 37.3351 138.026 37.3351L136.522 37.3296C134.531 37.3296 133.011 37.3185 131.971 37.3019C131.717 37.2964 131.49 37.2356 131.302 37.1195C131.109 37.0089 130.959 36.8596 130.86 36.6826C130.755 36.5057 130.705 36.3121 130.705 36.1131C130.705 35.914 130.755 35.7315 130.865 35.5546C130.97 35.3832 131.125 35.2449 131.335 35.1344C131.734 34.9463 132.016 34.7639 132.187 34.5925C132.358 34.4266 132.48 34.1777 132.546 33.857C132.613 33.5363 132.657 33.0331 132.674 32.3475C132.696 31.1807 132.707 29.9311 132.707 28.5929C132.707 27.3432 132.696 25.9664 132.674 24.4679C132.662 24.0034 132.624 23.6495 132.546 23.4062C132.469 23.1629 132.336 22.9528 132.143 22.7703C131.949 22.5878 131.628 22.3556 131.186 22.0791C131.02 21.9796 130.899 21.8469 130.816 21.681C130.727 21.5206 130.688 21.3492 130.688 21.1723C130.688 20.9787 130.738 20.7963 130.838 20.6193C130.937 20.4479 131.092 20.3097 131.291 20.1991C131.49 20.0885 131.728 20.0332 132.004 20.0332C133.238 20.0276 135.189 20.0221 137.86 20.0111H138.026C139.176 20.0111 140.033 20.0111 140.586 20.0055L142.394 20C142.876 20 143.263 20.0553 143.561 20.1548C143.86 20.2599 144.087 20.4258 144.247 20.6525C144.407 20.8847 144.518 21.1944 144.584 21.587C144.7 22.3169 144.811 23.3122 144.91 24.5619L144.916 24.678C144.916 24.9434 144.855 25.1757 144.745 25.3692C144.634 25.5627 144.485 25.712 144.302 25.8115C144.114 25.9111 143.921 25.9608 143.716 25.9608C143.451 25.9608 143.213 25.8834 142.997 25.7231C142.776 25.5627 142.621 25.3305 142.533 25.0208C142.289 24.2135 142.057 23.6163 141.836 23.2403C141.609 22.8643 141.36 22.621 141.09 22.5104C140.813 22.3998 140.431 22.339 139.945 22.3279L138.585 22.3169C138.33 22.3169 138.12 22.3224 137.965 22.3224L137.407 22.3279C137.009 22.3335 136.699 22.4219 136.489 22.5989C136.273 22.7758 136.163 23.0634 136.163 23.4504L136.157 25.1148L136.163 26.4032C136.163 26.735 136.235 26.9838 136.373 27.1552C136.506 27.3266 136.705 27.4096 136.97 27.4096H137.689C138.076 27.4096 138.38 27.3764 138.601 27.3101C138.822 27.2437 139.005 27.122 139.16 26.934C139.315 26.7516 139.469 26.4696 139.635 26.0825C139.757 25.795 139.923 25.5793 140.133 25.43C140.343 25.2862 140.564 25.2088 140.802 25.2088C141.012 25.2088 141.206 25.2697 141.388 25.3802C141.571 25.4908 141.72 25.6567 141.83 25.8668C141.941 26.077 141.996 26.3258 141.996 26.6078C141.991 26.8732 141.985 27.0944 141.985 27.2824C141.98 27.4704 141.974 27.6252 141.974 27.7524C141.963 28.2501 141.958 28.709 141.958 29.1182C141.958 29.5385 141.963 29.9919 141.98 30.4785C141.98 30.766 141.93 31.0148 141.83 31.225C141.725 31.4351 141.587 31.601 141.41 31.7116C141.233 31.8222 141.04 31.8775 140.835 31.8775C140.603 31.8775 140.376 31.8056 140.166 31.6563C139.956 31.507 139.779 31.2858 139.646 30.9927C139.469 30.6112 139.303 30.3292 139.149 30.1522C138.994 29.9753 138.806 29.8536 138.596 29.7873C138.38 29.7265 138.076 29.6933 137.689 29.6933H136.97C136.716 29.6933 136.517 29.7762 136.378 29.9421C136.24 30.108 136.168 30.3402 136.163 30.6388C136.152 30.954 136.146 31.2471 136.146 31.5125C136.146 31.8775 136.152 32.2535 136.174 32.6405C136.196 33.282 136.284 33.763 136.428 34.0837C136.572 34.4045 136.826 34.6367 137.197 34.7749C137.562 34.9132 138.126 34.9906 138.878 35.0127C138.988 35.0182 139.176 35.0182 139.436 35.0182C140.266 35.0182 140.874 34.9629 141.255 34.8523C141.637 34.7418 141.947 34.515 142.179 34.1667C142.411 33.8183 142.676 33.2156 142.981 32.3641C143.08 32.0931 143.229 31.8885 143.44 31.7447C143.65 31.601 143.876 31.5291 144.12 31.5291C144.324 31.5291 144.518 31.5844 144.695 31.6839C144.872 31.7835 145.015 31.9327 145.121 32.1263C145.22 32.3253 145.264 32.5521 145.253 32.8175C145.187 33.8902 145.076 34.9021 144.921 35.8477C144.855 36.2237 144.756 36.5223 144.623 36.7379C144.49 36.9591 144.308 37.1139 144.087 37.2079C143.86 37.3075 143.572 37.3517 143.218 37.3517L141.952 37.3462Z" fill="white"/>
</g>
<g filter="url(#filter4_dd_26_43)">
<path d="M109.676 37.1029C109.499 36.9923 109.367 36.843 109.273 36.655C109.173 36.4725 109.129 36.279 109.129 36.0744C109.129 35.8643 109.184 35.6652 109.3 35.4827C109.411 35.3002 109.582 35.1565 109.814 35.0569C110.235 34.88 110.544 34.7086 110.738 34.5316C110.926 34.3547 111.07 34.0948 111.164 33.752C111.258 33.4091 111.341 32.8783 111.407 32.1484C111.534 30.7771 111.678 29.1238 111.844 27.1829C111.916 26.3645 111.988 25.5296 112.054 24.6725C112.07 24.4181 112.082 24.208 112.082 24.0421C112.082 23.6937 112.043 23.4062 111.965 23.185C111.888 22.9638 111.766 22.7814 111.6 22.6265C111.429 22.4717 111.191 22.3169 110.882 22.1621C110.694 22.0625 110.555 21.9298 110.456 21.7584C110.356 21.5925 110.312 21.4045 110.312 21.2054C110.312 21.0009 110.362 20.8073 110.472 20.6248C110.578 20.4424 110.732 20.2931 110.942 20.177C111.153 20.0664 111.401 20.0055 111.694 20.0055C112.048 20.0055 112.358 20.0111 112.634 20.0166C112.911 20.0277 113.088 20.0332 113.165 20.0332C113.337 20.0442 113.58 20.0498 113.895 20.0553C114.371 20.0664 114.747 20.1604 115.023 20.3373C115.3 20.5143 115.51 20.7963 115.654 21.1778C116.079 22.3501 116.522 23.5223 116.986 24.6946C117.445 25.8669 118.026 27.3211 118.723 29.0463L119.137 30.0804C119.248 30.3568 119.364 30.5614 119.497 30.6941C119.629 30.8324 119.762 30.8987 119.9 30.8987C120.039 30.8987 120.177 30.8269 120.315 30.6831C120.448 30.5393 120.575 30.3347 120.686 30.0693C120.896 29.5606 121.211 28.7975 121.631 27.7856C122.693 25.1978 123.577 23.0026 124.291 21.2054C124.451 20.7963 124.661 20.5087 124.921 20.3318C125.181 20.1604 125.524 20.0664 125.944 20.0553C126.79 20.0277 127.564 20.0111 128.272 20.0111C128.532 20.0166 128.759 20.0774 128.958 20.1935C129.151 20.3097 129.301 20.459 129.4 20.647C129.5 20.835 129.555 21.0285 129.555 21.2276C129.555 21.4377 129.5 21.6368 129.389 21.8192C129.278 22.0017 129.124 22.1455 128.913 22.245C128.598 22.3943 128.361 22.5325 128.195 22.6597C128.029 22.7924 127.918 22.9362 127.852 23.1021C127.785 23.268 127.752 23.4836 127.752 23.738C127.752 23.8486 127.758 23.9702 127.769 24.1085C127.863 25.4355 127.951 26.6189 128.04 27.6529C128.123 28.6924 128.255 30.2131 128.438 32.2203C128.499 32.9391 128.576 33.4644 128.676 33.8017C128.775 34.1446 128.913 34.3934 129.096 34.5593C129.278 34.7252 129.571 34.8911 129.97 35.0459C130.202 35.1454 130.373 35.2892 130.495 35.4661C130.617 35.6486 130.677 35.8421 130.677 36.0523C130.677 36.2513 130.622 36.4449 130.523 36.6273C130.418 36.8153 130.274 36.9646 130.086 37.0808C129.898 37.1969 129.682 37.2577 129.439 37.2577C128.333 37.2688 127.371 37.2743 126.558 37.2743C125.905 37.2743 125.242 37.2688 124.562 37.2577C124.285 37.2522 124.047 37.1914 123.854 37.0752C123.655 36.9591 123.511 36.8098 123.412 36.6329C123.312 36.4559 123.268 36.2624 123.268 36.0578C123.268 35.8311 123.329 35.621 123.45 35.433C123.572 35.245 123.743 35.1012 123.97 35.0127C124.28 34.9021 124.506 34.7971 124.656 34.6975C124.799 34.6035 124.905 34.4763 124.971 34.316C125.037 34.1556 125.07 33.9234 125.07 33.6248C125.07 33.4313 125.059 33.1935 125.037 32.917C124.938 31.706 124.833 30.4895 124.711 29.2675C124.694 29.1127 124.645 28.991 124.556 28.9026C124.468 28.8141 124.368 28.7699 124.258 28.7699C124.158 28.7699 124.059 28.8086 123.97 28.8749C123.882 28.9413 123.804 29.0408 123.749 29.1735C123.439 29.8868 123.135 30.6001 122.837 31.3135C122.549 31.9881 122.3 32.5908 122.084 33.1106C121.869 33.6359 121.686 34.0838 121.532 34.4542L120.63 36.6218C120.509 36.9149 120.332 37.1416 120.105 37.2964C119.873 37.4512 119.629 37.5287 119.369 37.5287C119.104 37.5287 118.861 37.4512 118.634 37.2909C118.407 37.1305 118.236 36.9038 118.125 36.6052C117.755 35.6431 117.401 34.7362 117.058 33.8847C116.715 33.0331 116.273 31.9493 115.737 30.6333C115.626 30.3679 115.515 30.108 115.416 29.8592C115.316 29.6104 115.217 29.3671 115.123 29.1348C115.067 29.0021 114.996 28.897 114.907 28.8252C114.819 28.7533 114.73 28.7146 114.642 28.7146C114.537 28.7146 114.443 28.7643 114.365 28.8528C114.288 28.9413 114.238 29.0685 114.227 29.2233C114.094 30.4398 113.984 31.6784 113.89 32.9447C113.868 33.2377 113.857 33.4866 113.857 33.6912C113.857 33.9787 113.884 34.1999 113.939 34.3492C113.995 34.504 114.094 34.6201 114.227 34.7086C114.36 34.7971 114.57 34.8911 114.852 34.9851C115.106 35.0846 115.3 35.2339 115.432 35.433C115.565 35.632 115.632 35.8532 115.632 36.091C115.632 36.2956 115.582 36.4891 115.488 36.666C115.388 36.8485 115.25 36.9978 115.067 37.1084C114.879 37.219 114.664 37.2798 114.415 37.2798C113.906 37.2798 113.508 37.2854 113.221 37.2854L111.645 37.2909C111.28 37.2909 110.821 37.2909 110.279 37.2798C110.047 37.2798 109.848 37.219 109.676 37.1029Z" fill="white"/>
</g>
<g filter="url(#filter5_dd_26_43)">
<path d="M266.512 83.1127C265.469 82.9458 264.54 82.7163 263.716 82.445C262.881 82.1738 262.193 81.8816 261.65 81.5686C261.035 81.2243 260.576 80.9009 260.284 80.5879C259.981 80.2749 259.772 79.9098 259.658 79.4716C259.532 79.0334 259.47 78.4387 259.47 77.6875C259.47 75.9974 259.491 74.4324 259.553 73.0135C259.574 72.5649 259.689 72.1685 259.908 71.8346C260.127 71.5007 260.409 71.2503 260.753 71.0834C261.087 70.9165 261.452 70.8226 261.838 70.8226C262.36 70.8226 262.829 70.9791 263.257 71.2921C263.674 71.6051 263.967 72.0641 264.113 72.6484C264.634 74.735 265.427 76.2999 266.47 77.3433C267.514 78.397 268.807 78.9186 270.352 78.9186C271.165 78.9186 271.885 78.7726 272.511 78.4596C273.137 78.157 273.617 77.7293 273.972 77.1763C274.316 76.6234 274.493 75.987 274.493 75.2775C274.493 74.5263 274.285 73.8482 273.867 73.2222C273.45 72.5962 272.814 71.9807 271.948 71.3755C271.082 70.7704 269.924 70.1131 268.474 69.3828C266.512 68.4126 264.895 67.411 263.643 66.3677C262.381 65.3348 261.431 64.1976 260.805 62.9665C260.169 61.7354 259.856 60.3582 259.856 58.835C259.856 56.9779 260.305 55.3608 261.223 53.9628C262.13 52.5752 263.434 51.5006 265.145 50.739C266.846 49.9878 268.86 49.6018 271.176 49.6018C272.407 49.6018 273.596 49.7061 274.723 49.9043C275.85 50.1025 276.799 50.3634 277.561 50.6972C278.437 51.0937 279.063 51.5632 279.428 52.1057C279.793 52.6482 279.981 53.3472 280.002 54.2027V54.787C280.002 55.6425 279.981 57.0927 279.96 59.1167C279.95 59.6279 279.835 60.0661 279.606 60.4313C279.376 60.7964 279.074 61.0677 278.719 61.2555C278.364 61.4433 277.978 61.5372 277.582 61.5372C277.05 61.5372 276.57 61.3807 276.152 61.0677C275.735 60.7547 275.453 60.3061 275.328 59.7114C275.005 58.2508 274.598 57.1031 274.118 56.2893C273.638 55.4756 273.095 54.9122 272.511 54.5992C271.917 54.2862 271.238 54.1297 270.477 54.1297C269.611 54.1297 268.891 54.2966 268.307 54.6096C267.722 54.9331 267.295 55.3712 267.013 55.9138C266.721 56.4563 266.585 57.0718 266.585 57.75C266.585 58.5429 266.773 59.2523 267.169 59.8888C267.555 60.5356 268.161 61.1512 268.995 61.7563C269.83 62.3614 270.946 63.0187 272.355 63.7177C274.567 64.8236 276.319 65.9086 277.592 66.9728C278.865 68.037 279.773 69.122 280.315 70.2279C280.858 71.3442 281.129 72.5753 281.129 73.9212C281.129 75.7887 280.67 77.4371 279.752 78.856C278.834 80.2854 277.509 81.3913 275.787 82.1842C274.066 82.9771 272.042 83.3631 269.715 83.3631C268.609 83.3631 267.545 83.2797 266.512 83.1127Z" fill="white"/>
</g>
<g filter="url(#filter6_dd_26_43)">
<path d="M225.74 82.4242C225.396 82.2155 225.135 81.9442 224.947 81.6104C224.759 81.2869 224.676 80.9427 224.676 80.5671C224.676 80.1706 224.79 79.7846 225.02 79.4299C225.249 79.0751 225.594 78.7934 226.053 78.5639C227.013 78.1257 227.733 77.7397 228.192 77.4059C228.651 77.0824 229.037 76.6651 229.35 76.1643C229.663 75.6635 230.049 74.8706 230.497 73.8064C231.415 71.5738 232.469 68.9446 233.669 65.9399C234.869 62.9352 236.058 59.9514 237.237 56.9779L239.449 51.4275C239.699 50.812 240.033 50.3425 240.461 50.0191C240.878 49.6957 241.337 49.5287 241.817 49.5287C242.297 49.5287 242.767 49.7061 243.205 50.04C243.643 50.3738 243.987 50.8537 244.248 51.4797C246.449 56.9049 248.192 61.1929 249.485 64.3228C250.769 67.4632 252.062 70.5722 253.377 73.6604C253.878 74.8602 254.306 75.7366 254.66 76.2999C255.015 76.8633 255.38 77.2911 255.766 77.5728C256.152 77.8649 256.747 78.1883 257.55 78.5431C257.968 78.7517 258.281 79.0334 258.51 79.3881C258.729 79.7429 258.844 80.1289 258.844 80.5253C258.844 80.9009 258.74 81.2556 258.541 81.5895C258.343 81.9234 258.041 82.2051 257.644 82.4242C257.248 82.6537 256.757 82.7789 256.183 82.7997C254.587 82.8623 253.001 82.8936 251.436 82.8936C249.715 82.8936 248.119 82.8623 246.637 82.7893C246.136 82.758 245.709 82.6328 245.354 82.4242C244.999 82.2155 244.728 81.9442 244.551 81.6208C244.373 81.2974 244.29 80.9531 244.29 80.5775C244.29 80.2123 244.373 79.8681 244.561 79.5342C244.738 79.2003 244.999 78.9291 245.354 78.71C245.823 78.47 246.189 78.2509 246.46 78.0527C246.731 77.8649 246.919 77.6667 247.044 77.458C247.169 77.2598 247.232 77.0303 247.232 76.7694C247.232 76.519 247.159 76.1539 247.013 75.674C246.721 74.735 246.397 73.9421 246.032 73.2952C245.865 73.0031 245.615 72.7631 245.302 72.5962C244.978 72.4293 244.561 72.3458 244.039 72.325C242.954 72.3041 241.89 72.2937 240.868 72.2937C239.939 72.2937 238.896 72.3041 237.727 72.325C237.206 72.3458 236.809 72.4293 236.517 72.5962C236.225 72.7631 235.996 73.0031 235.818 73.3265C235.484 73.9108 235.192 74.6307 234.942 75.4862C234.796 75.9244 234.723 76.2895 234.723 76.5816C234.723 76.8946 234.796 77.1555 234.963 77.3641C235.13 77.5728 235.37 77.7606 235.703 77.9171C236.027 78.084 236.475 78.2509 237.06 78.4179C237.55 78.5952 237.926 78.8665 238.186 79.2421C238.447 79.6177 238.583 80.0245 238.583 80.4732C238.583 80.8488 238.479 81.2139 238.291 81.5478C238.103 81.8921 237.821 82.1738 237.446 82.4033C237.07 82.6328 236.611 82.7684 236.089 82.7997C234.775 82.8728 233.377 82.9041 231.906 82.9041C230.226 82.9041 228.567 82.8623 226.919 82.7789C226.47 82.758 226.074 82.6328 225.74 82.4242ZM238.353 67.1397C238.353 67.7448 238.76 68.0474 239.574 68.0578C239.908 68.0683 240.377 68.0683 241.003 68.0683C241.567 68.0683 241.974 68.0683 242.214 68.0578C242.61 68.0578 242.913 67.9744 243.121 67.8179C243.33 67.6718 243.445 67.4423 243.445 67.1502C243.445 66.9206 243.372 66.6494 243.236 66.3259C242.954 65.6687 242.84 65.3974 242.892 65.5017L241.713 62.6848C241.609 62.4657 241.483 62.2988 241.337 62.1736C241.191 62.0588 241.024 61.9962 240.857 61.9962C240.68 61.9962 240.513 62.0588 240.357 62.184C240.2 62.3092 240.075 62.4866 239.991 62.7161C239.897 62.9561 239.804 63.196 239.71 63.436C239.605 63.676 239.511 63.9159 239.418 64.1454L238.531 66.3572C238.406 66.6494 238.353 66.9102 238.353 67.1397Z" fill="white"/>
</g>
<g filter="url(#filter7_dd_26_43)">
<path d="M185.416 82.4241C185.082 82.2155 184.832 81.9338 184.654 81.5791C184.467 81.2348 184.383 80.8696 184.383 80.4836C184.383 80.0871 184.488 79.7116 184.707 79.3673C184.915 79.023 185.239 78.7517 185.677 78.5639C186.47 78.2301 187.054 77.9066 187.419 77.5728C187.774 77.2389 188.045 76.7486 188.223 76.1017C188.4 75.4549 188.556 74.4533 188.682 73.0761C188.922 70.4887 189.193 67.3693 189.506 63.7072C189.641 62.1632 189.777 60.5878 189.902 58.9706C189.934 58.4907 189.954 58.0943 189.954 57.7813C189.954 57.124 189.881 56.5815 189.735 56.1642C189.589 55.7468 189.36 55.4025 189.047 55.1104C188.723 54.8183 188.275 54.5262 187.69 54.234C187.336 54.0462 187.075 53.7958 186.887 53.4724C186.699 53.1594 186.616 52.8047 186.616 52.4291C186.616 52.0431 186.71 51.6779 186.918 51.3336C187.117 50.9894 187.409 50.7077 187.805 50.4886C188.202 50.2799 188.671 50.1651 189.224 50.1651C189.892 50.1651 190.476 50.1756 190.998 50.186C191.519 50.2069 191.853 50.2173 191.999 50.2173C192.323 50.2382 192.782 50.2486 193.376 50.259C194.274 50.2799 194.983 50.4573 195.505 50.7911C196.026 51.125 196.423 51.6571 196.694 52.377C197.498 54.5888 198.332 56.8006 199.209 59.0124C200.075 61.2242 201.17 63.9681 202.485 67.2232L203.267 69.1742C203.476 69.6958 203.695 70.0818 203.945 70.3322C204.196 70.5931 204.446 70.7183 204.707 70.7183C204.968 70.7183 205.228 70.5826 205.489 70.3114C205.74 70.0401 205.98 69.6541 206.188 69.1533C206.585 68.1935 207.179 66.7537 207.972 64.8445C209.975 59.9618 211.645 55.8199 212.991 52.4291C213.293 51.6571 213.69 51.1146 214.18 50.7807C214.67 50.4573 215.317 50.2799 216.11 50.259C217.706 50.2069 219.167 50.1756 220.502 50.1756C220.993 50.186 221.421 50.3008 221.796 50.5199C222.161 50.739 222.443 51.0207 222.631 51.3754C222.819 51.7301 222.923 52.0953 222.923 52.4709C222.923 52.8673 222.819 53.2429 222.61 53.5872C222.401 53.9315 222.109 54.2027 221.713 54.3905C221.118 54.6722 220.669 54.9331 220.356 55.173C220.043 55.4234 219.835 55.6947 219.71 56.0077C219.584 56.3206 219.522 56.7275 219.522 57.2075C219.522 57.4161 219.532 57.6456 219.553 57.9065C219.73 60.4104 219.897 62.6431 220.064 64.5941C220.221 66.5555 220.471 69.4246 220.815 73.2118C220.93 74.5681 221.076 75.5592 221.264 76.1956C221.452 76.8425 221.713 77.312 222.057 77.6249C222.401 77.9379 222.954 78.2509 223.705 78.5431C224.144 78.7308 224.467 79.0021 224.697 79.336C224.926 79.6803 225.041 80.0454 225.041 80.4419C225.041 80.8175 224.936 81.1826 224.749 81.5269C224.55 81.8816 224.279 82.1633 223.924 82.3824C223.57 82.6015 223.163 82.7163 222.704 82.7163C220.617 82.7371 218.802 82.7476 217.268 82.7476C216.037 82.7476 214.785 82.7371 213.502 82.7163C212.98 82.7058 212.532 82.5911 212.166 82.372C211.791 82.1529 211.52 81.8712 211.332 81.5373C211.144 81.2035 211.061 80.8383 211.061 80.4523C211.061 80.0245 211.175 79.6281 211.405 79.2734C211.634 78.9186 211.958 78.6474 212.386 78.4805C212.97 78.2718 213.398 78.0736 213.679 77.8858C213.95 77.7084 214.149 77.4684 214.274 77.1659C214.399 76.8633 214.462 76.4251 214.462 75.8618C214.462 75.4966 214.441 75.048 214.399 74.5263C214.211 72.2415 214.013 69.9462 213.784 67.6405C213.752 67.3484 213.658 67.1189 213.491 66.9519C213.324 66.785 213.137 66.7015 212.928 66.7015C212.74 66.7015 212.552 66.7746 212.386 66.8998C212.219 67.025 212.073 67.2128 211.968 67.4631C211.384 68.809 210.81 70.1549 210.247 71.5007C209.704 72.7736 209.235 73.9108 208.828 74.8915C208.421 75.8826 208.077 76.7277 207.785 77.4267L206.084 81.5165C205.854 82.0694 205.521 82.4972 205.093 82.7893C204.655 83.0814 204.196 83.2275 203.705 83.2275C203.204 83.2275 202.745 83.0814 202.318 82.7789C201.89 82.4763 201.566 82.0486 201.358 81.4852C200.659 79.6698 199.991 77.9588 199.344 76.3521C198.697 74.7454 197.863 72.7005 196.851 70.2175C196.642 69.7167 196.433 69.2263 196.246 68.7568C196.058 68.2874 195.87 67.8283 195.693 67.3901C195.588 67.1397 195.453 66.9415 195.286 66.8059C195.119 66.6702 194.952 66.5972 194.785 66.5972C194.587 66.5972 194.409 66.6911 194.263 66.858C194.117 67.025 194.023 67.2649 194.002 67.557C193.752 69.8523 193.543 72.1893 193.366 74.5785C193.324 75.1314 193.303 75.6009 193.303 75.987C193.303 76.5295 193.356 76.9468 193.46 77.2285C193.564 77.5206 193.752 77.7397 194.002 77.9066C194.253 78.0736 194.649 78.2509 195.181 78.4283C195.661 78.6161 196.026 78.8978 196.277 79.2734C196.527 79.649 196.652 80.0663 196.652 80.5149C196.652 80.9009 196.559 81.2661 196.381 81.5999C196.193 81.9442 195.933 82.2259 195.588 82.4346C195.234 82.6432 194.827 82.758 194.357 82.758C193.397 82.758 192.646 82.7684 192.104 82.7684L189.13 82.7789C188.442 82.7789 187.576 82.7789 186.553 82.758C186.115 82.758 185.739 82.6432 185.416 82.4241Z" fill="white"/>
</g>
<g filter="url(#filter8_dd_26_43)">
<path d="M162.912 82.445C162.547 82.2155 162.265 81.9234 162.077 81.5686C161.89 81.2139 161.796 80.8383 161.796 80.4523C161.796 80.0976 161.879 79.7637 162.057 79.4507C162.234 79.1377 162.495 78.8978 162.849 78.71C163.83 78.2301 164.519 77.8023 164.915 77.4476C165.312 77.0929 165.583 76.6129 165.729 76.0078C165.875 75.4131 165.959 74.4637 165.979 73.1596C166 71.3651 166.011 69.4141 166.011 67.2962C166.011 64.7506 165.99 62.0797 165.959 59.2836C165.938 57.896 165.844 56.8945 165.687 56.2685C165.531 55.6425 165.239 55.2147 164.8 54.9852C164.362 54.7557 163.653 54.6409 162.683 54.6409C161.89 54.6409 161.253 54.7766 160.773 55.0478C160.293 55.3191 159.876 55.7781 159.521 56.4458C159.167 57.1136 158.791 58.0943 158.415 59.3984C158.217 60.0661 157.904 60.5669 157.466 60.9008C157.028 61.2346 156.548 61.4015 156.026 61.4015C155.619 61.4015 155.244 61.3077 154.889 61.099C154.534 60.9008 154.253 60.6191 154.044 60.2435C153.835 59.8679 153.752 59.4401 153.783 58.9498C153.835 58.0838 153.919 57.0927 154.044 55.9868C154.169 54.8809 154.305 53.8063 154.461 52.7525C154.566 51.9596 154.889 51.3337 155.411 50.885C155.932 50.4468 156.757 50.2173 157.873 50.2173L172.271 50.2277L180.565 50.2173C181.692 50.2173 182.516 50.4468 183.037 50.8955C183.559 51.3441 183.893 52.0014 184.029 52.8777C184.175 53.848 184.3 54.9018 184.425 56.0285C184.55 57.1553 184.634 58.1569 184.675 59.0332C184.686 59.5132 184.592 59.9305 184.383 60.2852C184.175 60.6504 183.903 60.9321 183.549 61.1199C183.194 61.3077 182.829 61.4015 182.432 61.4015C181.921 61.4015 181.452 61.2451 181.024 60.9216C180.596 60.5982 180.294 60.1183 180.106 59.4819C179.688 58.0734 179.282 57.0301 178.896 56.3415C178.499 55.6634 178.071 55.2147 177.602 54.9852C177.122 54.7557 176.485 54.6409 175.693 54.6409C174.754 54.6409 174.086 54.7557 173.669 54.9748C173.251 55.2043 172.98 55.6216 172.834 56.2372C172.688 56.8632 172.594 57.8752 172.573 59.2732C172.521 61.8815 172.5 64.6358 172.5 67.5466C172.5 69.7584 172.511 71.6364 172.542 73.1596C172.563 74.4637 172.646 75.4236 172.792 76.0391C172.938 76.6547 173.21 77.1346 173.606 77.4789C174.002 77.8232 174.66 78.1988 175.578 78.5952C175.964 78.783 176.256 79.0438 176.454 79.3673C176.652 79.7011 176.757 80.0558 176.757 80.4314C176.757 80.8279 176.652 81.2035 176.465 81.5582C176.277 81.9129 176.006 82.2051 175.651 82.4346C175.296 82.6641 174.9 82.7893 174.451 82.7997C172.239 82.831 170.403 82.8415 168.953 82.8415C167.137 82.8415 165.552 82.831 164.195 82.7997C163.705 82.7893 163.277 82.6745 162.912 82.445Z" fill="white"/>
</g>
<g filter="url(#filter9_dd_26_43)">
<path d="M137.768 83.1127C136.725 82.9458 135.796 82.7163 134.972 82.445C134.138 82.1738 133.449 81.8816 132.907 81.5686C132.291 81.2243 131.832 80.9009 131.54 80.5879C131.237 80.2749 131.029 79.9098 130.914 79.4716C130.789 79.0334 130.726 78.4387 130.726 77.6875C130.726 75.9974 130.747 74.4324 130.809 73.0135C130.83 72.5649 130.945 72.1685 131.164 71.8346C131.383 71.5007 131.665 71.2503 132.009 71.0834C132.343 70.9165 132.708 70.8226 133.094 70.8226C133.616 70.8226 134.085 70.9791 134.513 71.2921C134.931 71.6051 135.223 72.0641 135.369 72.6484C135.89 74.735 136.683 76.2999 137.727 77.3433C138.77 78.397 140.064 78.9186 141.608 78.9186C142.421 78.9186 143.141 78.7726 143.767 78.4596C144.393 78.157 144.873 77.7293 145.228 77.1763C145.572 76.6234 145.75 75.987 145.75 75.2775C145.75 74.5263 145.541 73.8482 145.124 73.2222C144.706 72.5962 144.07 71.9807 143.204 71.3755C142.338 70.7704 141.18 70.1131 139.73 69.3828C137.768 68.4126 136.151 67.411 134.899 66.3677C133.637 65.3348 132.687 64.1976 132.061 62.9665C131.425 61.7354 131.112 60.3582 131.112 58.835C131.112 56.9779 131.561 55.3608 132.479 53.9628C133.386 52.5752 134.691 51.5006 136.402 50.739C138.102 49.9878 140.116 49.6018 142.432 49.6018C143.663 49.6018 144.852 49.7061 145.979 49.9043C147.106 50.1025 148.055 50.3634 148.817 50.6972C149.693 51.0937 150.319 51.5632 150.684 52.1057C151.05 52.6482 151.237 53.3472 151.258 54.2027V54.787C151.258 55.6425 151.237 57.0927 151.217 59.1167C151.206 59.6279 151.091 60.0661 150.862 60.4313C150.632 60.7964 150.33 61.0677 149.975 61.2555C149.62 61.4433 149.234 61.5372 148.838 61.5372C148.306 61.5372 147.826 61.3807 147.408 61.0677C146.991 60.7547 146.709 60.3061 146.584 59.7114C146.261 58.2508 145.854 57.1031 145.374 56.2893C144.894 55.4756 144.352 54.9122 143.767 54.5992C143.173 54.2862 142.494 54.1297 141.733 54.1297C140.867 54.1297 140.147 54.2966 139.563 54.6096C138.979 54.9331 138.551 55.3712 138.269 55.9138C137.977 56.4563 137.841 57.0718 137.841 57.75C137.841 58.5429 138.029 59.2523 138.426 59.8888C138.812 60.5356 139.417 61.1512 140.251 61.7563C141.086 62.3614 142.202 63.0187 143.611 63.7177C145.823 64.8236 147.575 65.9086 148.848 66.9728C150.121 68.037 151.029 69.122 151.571 70.2279C152.114 71.3442 152.385 72.5753 152.385 73.9212C152.385 75.7887 151.926 77.4371 151.008 78.856C150.09 80.2854 148.765 81.3913 147.043 82.1842C145.322 82.9771 143.298 83.3631 140.971 83.3631C139.865 83.3631 138.801 83.2797 137.768 83.1127Z" fill="white"/>
</g>
<g filter="url(#filter10_dd_26_43)">
<path d="M116.381 82.4763C116.015 82.2677 115.734 81.986 115.546 81.6417C115.348 81.3078 115.254 80.9427 115.254 80.5671C115.254 80.1915 115.348 79.8472 115.556 79.5133C115.755 79.1795 116.047 78.9186 116.443 78.71C117.194 78.3553 117.726 78.011 118.05 77.6875C118.373 77.3746 118.603 76.9051 118.728 76.2999C118.853 75.6948 118.937 74.7454 118.968 73.4517C119.01 71.2503 119.031 68.8925 119.031 66.3677C119.031 64.0098 119.01 61.412 118.968 58.5846C118.947 57.7082 118.874 57.0405 118.728 56.5815C118.582 56.1224 118.332 55.726 117.966 55.3817C117.601 55.0374 116.996 54.5992 116.161 54.0775C115.848 53.8793 115.619 53.6289 115.462 53.3264C115.296 53.0342 115.222 52.7108 115.222 52.3665C115.222 52.0014 115.316 51.6571 115.504 51.3232C115.692 50.9998 115.984 50.739 116.36 50.5303C116.735 50.3216 117.184 50.2173 117.726 50.2173C118.676 50.2173 120.449 50.2069 123.047 50.2069C124.873 50.2069 126.146 50.2173 126.855 50.2173C127.367 50.2173 127.805 50.3216 128.18 50.5303C128.545 50.739 128.827 50.9998 129.015 51.3232C129.203 51.6466 129.297 51.9909 129.297 52.3561C129.297 52.7004 129.213 53.0238 129.057 53.3264C128.89 53.6394 128.66 53.8897 128.358 54.0775C127.513 54.5992 126.907 55.0374 126.542 55.3817C126.177 55.726 125.927 56.1224 125.791 56.5815C125.645 57.0405 125.572 57.7082 125.562 58.5846C125.52 61.5372 125.499 64.2602 125.499 66.7641C125.499 68.8716 125.509 71.1043 125.551 73.4517C125.572 74.7559 125.656 75.7157 125.791 76.3208C125.916 76.9364 126.146 77.3954 126.469 77.7084C126.782 78.0214 127.314 78.3553 128.066 78.71C128.452 78.9186 128.744 79.1795 128.942 79.5029C129.14 79.8263 129.244 80.1706 129.244 80.5462C129.244 80.9218 129.151 81.2869 128.963 81.6208C128.775 81.9651 128.504 82.2468 128.149 82.4659C127.794 82.685 127.398 82.7997 126.939 82.7997C125.697 82.8206 124.278 82.831 122.672 82.831C120.794 82.831 119.124 82.8206 117.653 82.7997C117.163 82.7997 116.735 82.685 116.381 82.4763Z" fill="white"/>
</g>
<g filter="url(#filter11_dd_26_43)">
<path d="M86.9802 82.4659C86.6255 82.2468 86.3542 81.9651 86.1664 81.6104C85.9786 81.2661 85.8847 80.9009 85.8847 80.5149C85.8847 80.1393 85.9786 79.795 86.1873 79.4612C86.3855 79.1377 86.6881 78.8769 87.0845 78.6891C87.8148 78.3657 88.3365 78.0318 88.6704 77.698C89.0042 77.3641 89.2233 76.9051 89.3485 76.2999C89.4737 75.6948 89.5467 74.7767 89.5676 73.5248C89.5989 70.833 89.6198 68.1517 89.6198 65.4809C89.6198 63.2586 89.6093 60.9634 89.5885 58.6055C89.5676 57.7813 89.4946 57.1344 89.3589 56.6754C89.2129 56.2163 88.9625 55.799 88.5869 55.4234C88.2113 55.0478 87.6271 54.5992 86.8133 54.0671C86.5003 53.8584 86.2708 53.6081 86.1143 53.3055C85.9473 53.0029 85.8743 52.6795 85.8743 52.3457C85.8743 51.9909 85.9682 51.6466 86.156 51.3232C86.3438 50.9998 86.615 50.739 86.9698 50.5303C87.3245 50.3321 87.7522 50.2277 88.253 50.2173C89.5676 50.2069 90.6213 50.1964 91.3934 50.1964L96.6203 50.2069H98.0914C100.783 50.2069 103.12 50.6242 105.082 51.4588C107.043 52.2935 108.524 53.4098 109.547 54.8183C110.569 56.2267 111.081 57.7813 111.081 59.4819C111.081 60.9634 110.715 62.3822 109.996 63.7385C109.265 65.0948 108.18 66.2738 106.74 67.2545C106.417 67.484 106.177 67.7135 106.031 67.9431C105.885 68.1726 105.812 68.4021 105.812 68.6525C105.812 69.0281 105.989 69.4767 106.344 69.9879C107.158 71.1982 107.805 72.1372 108.284 72.8049C108.764 73.4726 109.307 74.2133 109.912 75.0062L110.528 75.8305C110.945 76.4043 111.31 76.8425 111.623 77.1346C111.936 77.4371 112.249 77.6667 112.583 77.8232C112.906 77.9797 113.334 78.1257 113.866 78.2509C114.503 78.4283 114.983 78.7204 115.316 79.1377C115.64 79.5551 115.807 80.0037 115.807 80.5045C115.807 80.8905 115.713 81.2556 115.525 81.5895C115.337 81.9338 115.066 82.2051 114.711 82.4137C114.357 82.6224 113.95 82.7267 113.48 82.7267H110.1C109.349 82.7267 108.712 82.6537 108.201 82.5076C107.69 82.3615 107.231 82.1216 106.834 81.7877C106.427 81.4539 106.021 80.9948 105.614 80.3897C104.988 79.482 104.236 78.3448 103.35 76.9885C101.733 74.5576 100.543 72.7944 99.7816 71.6885C99.406 71.1669 99.1034 70.7704 98.8635 70.4783C98.6131 70.1862 98.3731 69.9671 98.1436 69.8106C97.9036 69.6541 97.6532 69.5706 97.4028 69.5706H97.2776C97.0272 69.5811 96.829 69.6541 96.6829 69.7793C96.5369 69.9045 96.4221 70.134 96.3387 70.447C96.2552 70.76 96.203 71.2086 96.1926 71.772C96.1613 72.471 96.1509 73.0657 96.1509 73.5456C96.1509 73.8899 96.1509 74.1507 96.1613 74.3281C96.1822 75.3923 96.2656 76.1539 96.3908 76.6129C96.516 77.0824 96.7664 77.4476 97.1211 77.698C97.4759 77.9588 98.1018 78.2405 98.9991 78.5535C99.4373 78.7204 99.7816 78.9812 100.011 79.336C100.241 79.6907 100.355 80.0663 100.355 80.4836C100.355 80.8801 100.261 81.2452 100.074 81.5999C99.8859 81.9547 99.6146 82.2363 99.2599 82.4554C98.9052 82.685 98.4983 82.7997 98.0288 82.7997C96.9646 82.8102 95.3371 82.8102 93.1357 82.8102C90.9239 82.8102 89.2755 82.8102 88.2009 82.7997C87.7418 82.7997 87.3349 82.685 86.9802 82.4659ZM96.5682 64.761C96.8499 65.074 97.2672 65.22 97.8201 65.2096C99.3016 65.2096 100.491 64.9488 101.388 64.4167C102.285 63.895 102.932 63.2273 103.308 62.424C103.684 61.6311 103.871 60.7756 103.871 59.8679C103.871 58.8246 103.621 57.9065 103.131 57.1136C102.64 56.3206 101.952 55.6947 101.065 55.2565C100.168 54.8183 99.1451 54.5888 97.9766 54.5888C97.528 54.5888 97.1733 54.6618 96.9125 54.787C96.6412 54.9226 96.4534 55.1313 96.3282 55.4234C96.203 55.7155 96.1404 56.112 96.1404 56.6128C96.13 57.3014 96.13 58.3968 96.13 59.8887C96.13 61.412 96.13 62.5387 96.1404 63.2795C96.1404 63.9576 96.2865 64.448 96.5682 64.761Z" fill="white"/>
</g>
<g filter="url(#filter12_dd_26_43)">
<path d="M52.3216 82.4554C51.9564 82.2468 51.6747 81.9651 51.487 81.6312C51.2887 81.2974 51.1948 80.9322 51.1948 80.5566C51.1948 80.1915 51.2887 79.8472 51.4974 79.5133C51.6956 79.1899 51.9982 78.9186 52.3946 78.71C53.1249 78.3552 53.657 78.0214 53.9909 77.698C54.3143 77.3745 54.5438 76.9051 54.6795 76.2895C54.8047 75.6844 54.8881 74.735 54.909 73.4517C54.9299 71.699 54.9507 69.4037 54.9507 66.5763C54.9507 63.4464 54.9299 60.7756 54.909 58.5846C54.8881 57.7291 54.8151 57.0614 54.6795 56.6023C54.5334 56.1433 54.283 55.7364 53.9179 55.3921C53.5423 55.0478 52.9371 54.6096 52.1025 54.0775C51.7895 53.8793 51.56 53.6289 51.4035 53.3264C51.2366 53.0342 51.1635 52.7108 51.1635 52.3665C51.1635 52.0118 51.2574 51.6675 51.4452 51.3336C51.633 51.0102 51.9251 50.7494 52.3112 50.5407C52.6868 50.3321 53.1562 50.2277 53.6988 50.2173C54.909 50.1964 56.4009 50.186 58.185 50.186C59.9586 50.186 61.4923 50.1964 62.786 50.2173C63.2867 50.2277 63.7145 50.3321 64.0901 50.5407C64.4552 50.7494 64.7369 51.0102 64.9247 51.3336C65.1125 51.6675 65.2064 52.0118 65.2064 52.3769C65.2064 52.7421 65.1125 53.0864 64.9352 53.4098C64.7474 53.7437 64.4865 54.0149 64.1318 54.2236C63.3806 54.6514 62.8381 55.0269 62.4834 55.3399C62.1287 55.6529 61.8783 56.0181 61.7426 56.4145C61.5966 56.811 61.5236 57.3535 61.5236 58.0212C61.5027 59.4506 61.4923 60.7025 61.4923 61.7876C61.4923 62.2988 61.5549 62.7161 61.7009 63.0395C61.847 63.363 62.0869 63.6029 62.4312 63.7698C62.7755 63.9368 63.245 64.0202 63.8501 64.0202C64.9665 64.0307 66.4271 64.0307 68.2216 64.0307C69.9535 64.0307 71.3306 64.0307 72.3322 64.0202C73.0416 64.0202 73.5946 63.9576 73.9806 63.822C74.3562 63.6968 74.6275 63.4881 74.7735 63.196C74.9196 62.9143 75.0031 62.5283 75.0031 62.0275C75.0031 60.5565 74.9926 59.2419 74.9718 58.0838C74.9613 57.3848 74.8883 56.8319 74.7527 56.4354C74.617 56.0389 74.3771 55.6842 74.0223 55.3712C73.6676 55.0582 73.1042 54.6827 72.3322 54.2445C71.9775 54.0358 71.7062 53.775 71.5184 53.4516C71.3306 53.1281 71.2472 52.7838 71.2472 52.4291C71.2472 52.064 71.3306 51.7197 71.5184 51.3858C71.7062 51.0624 71.967 50.8016 72.3113 50.5929C72.6556 50.3842 73.0625 50.2799 73.532 50.2695C74.8674 50.2486 76.5367 50.2277 78.5399 50.2277C80.1674 50.2277 81.6072 50.2382 82.8696 50.259C83.3599 50.2695 83.7877 50.3738 84.1633 50.5825C84.5284 50.7911 84.8101 51.0624 84.9979 51.3962C85.1857 51.7301 85.29 52.0848 85.29 52.45C85.29 52.7943 85.2066 53.1177 85.0397 53.4307C84.8727 53.7437 84.6223 53.9941 84.2989 54.2027C83.4747 54.7035 82.88 55.1208 82.5253 55.4651C82.1706 55.8199 81.9202 56.2267 81.7845 56.7067C81.6489 57.1866 81.5759 57.8856 81.5654 58.8037C81.5237 61.3911 81.5133 63.6864 81.5133 65.6895C81.5133 68.0265 81.5341 70.6974 81.5863 73.6917C81.6072 74.9332 81.6802 75.8409 81.8054 76.4043C81.9306 76.9677 82.1393 77.3954 82.4523 77.6771C82.7548 77.9692 83.2765 78.2822 84.0172 78.6265C84.4137 78.8352 84.7162 79.1064 84.9249 79.4299C85.1336 79.7533 85.2379 80.0976 85.2379 80.4627C85.2379 80.8383 85.1336 81.2035 84.9353 81.5582C84.7371 81.9129 84.4554 82.1946 84.1007 82.4241C83.746 82.6537 83.3391 82.7789 82.88 82.7997C81.096 82.8623 79.4893 82.8832 78.0495 82.8832C76.6202 82.8832 75.17 82.8623 73.6885 82.7997C73.2294 82.7789 72.833 82.6641 72.4887 82.4346C72.134 82.205 71.8731 81.9234 71.6853 81.5686C71.4976 81.2139 71.4037 80.8487 71.4037 80.4732C71.4037 80.108 71.4871 79.7637 71.6749 79.4403C71.8627 79.1169 72.134 78.8456 72.5096 78.6369C73.2816 78.2301 73.8241 77.8753 74.1371 77.5832C74.4501 77.2911 74.6588 76.8842 74.7735 76.3834C74.8779 75.8826 74.9509 75.0793 74.9718 73.9525C74.9926 73.2222 75.0031 72.1059 75.0031 70.5826C75.0031 70.0088 74.8987 69.5602 74.7005 69.2263C74.5023 68.8925 74.1997 68.6629 73.7928 68.5273C73.3859 68.3917 72.8538 68.3187 72.1861 68.3082H71.5184C69.87 68.2978 68.7432 68.2874 68.1381 68.2874C67.533 68.2874 66.4062 68.2978 64.7682 68.3082H64.0796C63.4432 68.3187 62.9424 68.3917 62.5669 68.5377C62.1913 68.6838 61.92 68.9238 61.7531 69.2576C61.5757 69.5915 61.4923 70.061 61.4923 70.6452C61.4923 72.085 61.5027 73.1909 61.5236 73.9629C61.534 75.1001 61.607 75.9348 61.7322 76.4773C61.8574 77.0198 62.0765 77.4371 62.3999 77.7293C62.7234 78.0214 63.2659 78.3552 64.0275 78.71C64.4031 78.9082 64.6952 79.169 64.8934 79.4925C65.0917 79.8159 65.196 80.1602 65.196 80.5358C65.196 80.9113 65.0917 81.2661 64.9039 81.5999C64.7161 81.9442 64.4344 82.2259 64.0796 82.445C63.7145 82.6641 63.2867 82.7789 62.8068 82.7997C61.5027 82.8415 60.0629 82.8623 58.498 82.8623C56.8287 82.8623 55.1907 82.8415 53.5944 82.7997C53.1041 82.7893 52.6763 82.6745 52.3216 82.4554Z" fill="white"/>
</g>
<g filter="url(#filter13_dd_26_43)">
<path d="M28.1586 81.2139C25.5295 79.7846 23.5159 77.8023 22.1075 75.2566C20.699 72.7214 20 69.8315 20 66.5763C20 63.363 20.699 60.473 22.1075 57.896C23.5159 55.3295 25.54 53.3055 28.1899 51.824C30.8295 50.3425 33.9386 49.6018 37.5067 49.6018C38.9569 49.6018 40.4279 49.727 41.9094 49.9774C43.3909 50.2277 44.7368 50.572 45.9679 50.9894C46.8755 51.3128 47.5537 51.7301 48.0023 52.2413C48.4405 52.7525 48.7326 53.4516 48.8683 54.3488C48.983 55.2252 49.1813 56.8214 49.4525 59.1167C49.4629 59.2732 49.4734 59.388 49.4734 59.4506C49.4734 59.9514 49.3586 60.3791 49.1291 60.7547C48.8996 61.1303 48.6074 61.4224 48.2423 61.6206C47.8771 61.8189 47.4911 61.9128 47.0946 61.9128C46.6147 61.9128 46.187 61.7771 45.8009 61.4954C45.4045 61.2242 45.1228 60.8069 44.9559 60.2539C44.3299 58.2716 43.3074 56.7588 41.9094 55.7051C40.5114 54.6618 38.7691 54.1297 36.6825 54.1297C34.888 54.1297 33.3021 54.5888 31.9041 55.486C30.5061 56.3937 29.4106 57.75 28.6177 59.5653C27.8248 61.3807 27.4283 63.6029 27.4283 66.2216C27.4283 68.7255 27.7935 70.9374 28.5342 72.8362C29.2646 74.7454 30.36 76.2373 31.7998 77.3015C33.2395 78.3761 34.9819 78.9186 37.0267 78.9291C38.4874 78.9499 39.7393 78.7621 40.7931 78.3657C41.8468 77.9692 42.7441 77.312 43.4848 76.3834C44.2256 75.4549 44.8098 74.2029 45.2376 72.6171C45.3836 72.0537 45.6549 71.6259 46.0513 71.3338C46.4374 71.0417 46.8755 70.8956 47.3659 70.8956C47.7728 70.8956 48.1692 71 48.5448 71.1982C48.9204 71.3964 49.2126 71.6781 49.4316 72.0328C49.6507 72.3876 49.7446 72.7944 49.7133 73.2535C49.536 75.4027 49.3377 77.2076 49.1291 78.6787C49.0456 79.2421 48.8996 79.7116 48.7013 80.0871C48.4927 80.4732 48.211 80.807 47.8458 81.0783C47.4702 81.36 46.9903 81.6104 46.4061 81.819C45.0915 82.299 43.6517 82.6745 42.0763 82.9458C40.4905 83.2275 38.9256 83.3631 37.3815 83.3631C33.8551 83.3631 30.7878 82.6537 28.1586 81.2139Z" fill="white"/>
</g>
<defs>
<filter id="filter0_dd_26_43" x="155.704" y="0.0221252" width="56.2956" height="57.2577" filterUnits="userSpaceOnUse" color-interpolation-filters="sRGB">
<feFlood flood-opacity="0" result="BackgroundImageFix"/>
<feColorMatrix in="SourceAlpha" type="matrix" values="0 0 0 0 0 0 0 0 0 0 0 0 0 0 0 0 0 0 127 0" result="hardAlpha"/>
<feOffset/>
<feGaussianBlur stdDeviation="10"/>
<feComposite in2="hardAlpha" operator="out"/>
<feColorMatrix type="matrix" values="0 0 0 0 1 0 0 0 0 1 0 0 0 0 1 0 0 0 0.78 0"/>
<feBlend mode="normal" in2="BackgroundImageFix" result="effect1_dropShadow_26_43"/>
<feColorMatrix in="SourceAlpha" type="matrix" values="0 0 0 0 0 0 0 0 0 0 0 0 0 0 0 0 0 0 127 0" result="hardAlpha"/>
<feOffset dy="2"/>
<feGaussianBlur stdDeviation="2.35"/>
<feComposite in2="hardAlpha" operator="out"/>
<feColorMatrix type="matrix" values="0 0 0 0 1 0 0 0 0 1 0 0 0 0 1 0 0 0 0.25 0"/>
<feBlend mode="normal" in2="effect1_dropShadow_26_43" result="effect2_dropShadow_26_43"/>
<feBlend mode="normal" in="SourceGraphic" in2="effect2_dropShadow_26_43" result="shape"/>
</filter>
<filter id="filter1_dd_26_43" x="141.604" y="0.0221252" width="55.8643" height="57.2853" filterUnits="userSpaceOnUse" color-interpolation-filters="sRGB">
<feFlood flood-opacity="0" result="BackgroundImageFix"/>
<feColorMatrix in="SourceAlpha" type="matrix" values="0 0 0 0 0 0 0 0 0 0 0 0 0 0 0 0 0 0 127 0" result="hardAlpha"/>
<feOffset/>
<feGaussianBlur stdDeviation="10"/>
<feComposite in2="hardAlpha" operator="out"/>
<feColorMatrix type="matrix" values="0 0 0 0 1 0 0 0 0 1 0 0 0 0 1 0 0 0 0.78 0"/>
<feBlend mode="normal" in2="BackgroundImageFix" result="effect1_dropShadow_26_43"/>
<feColorMatrix in="SourceAlpha" type="matrix" values="0 0 0 0 0 0 0 0 0 0 0 0 0 0 0 0 0 0 127 0" result="hardAlpha"/>
<feOffset dy="2"/>
<feGaussianBlur stdDeviation="2.35"/>
<feComposite in2="hardAlpha" operator="out"/>
<feColorMatrix type="matrix" values="0 0 0 0 1 0 0 0 0 1 0 0 0 0 1 0 0 0 0.25 0"/>
<feBlend mode="normal" in2="effect1_dropShadow_26_43" result="effect2_dropShadow_26_43"/>
<feBlend mode="normal" in="SourceGraphic" in2="effect2_dropShadow_26_43" result="shape"/>
</filter>
<filter id="filter2_dd_26_43" x="126.033" y="0.0221252" width="55.8643" height="57.2853" filterUnits="userSpaceOnUse" color-interpolation-filters="sRGB">
<feFlood flood-opacity="0" result="BackgroundImageFix"/>
<feColorMatrix in="SourceAlpha" type="matrix" values="0 0 0 0 0 0 0 0 0 0 0 0 0 0 0 0 0 0 127 0" result="hardAlpha"/>
<feOffset/>
<feGaussianBlur stdDeviation="10"/>
<feComposite in2="hardAlpha" operator="out"/>
<feColorMatrix type="matrix" values="0 0 0 0 1 0 0 0 0 1 0 0 0 0 1 0 0 0 0.78 0"/>
<feBlend mode="normal" in2="BackgroundImageFix" result="effect1_dropShadow_26_43"/>
<feColorMatrix in="SourceAlpha" type="matrix" values="0 0 0 0 0 0 0 0 0 0 0 0 0 0 0 0 0 0 127 0" result="hardAlpha"/>
<feOffset dy="2"/>
<feGaussianBlur stdDeviation="2.35"/>
<feComposite in2="hardAlpha" operator="out"/>
<feColorMatrix type="matrix" values="0 0 0 0 1 0 0 0 0 1 0 0 0 0 1 0 0 0 0.25 0"/>
<feBlend mode="normal" in2="effect1_dropShadow_26_43" result="effect2_dropShadow_26_43"/>
<feBlend mode="normal" in="SourceGraphic" in2="effect2_dropShadow_26_43" result="shape"/>
</filter>
<filter id="filter3_dd_26_43" x="110.688" y="0" width="54.5665" height="57.3517" filterUnits="userSpaceOnUse" color-interpolation-filters="sRGB">
<feFlood flood-opacity="0" result="BackgroundImageFix"/>
<feColorMatrix in="SourceAlpha" type="matrix" values="0 0 0 0 0 0 0 0 0 0 0 0 0 0 0 0 0 0 127 0" result="hardAlpha"/>
<feOffset/>
<feGaussianBlur stdDeviation="10"/>
<feComposite in2="hardAlpha" operator="out"/>
<feColorMatrix type="matrix" values="0 0 0 0 1 0 0 0 0 1 0 0 0 0 1 0 0 0 0.78 0"/>
<feBlend mode="normal" in2="BackgroundImageFix" result="effect1_dropShadow_26_43"/>
<feColorMatrix in="SourceAlpha" type="matrix" values="0 0 0 0 0 0 0 0 0 0 0 0 0 0 0 0 0 0 127 0" result="hardAlpha"/>
<feOffset dy="2"/>
<feGaussianBlur stdDeviation="2.35"/>
<feComposite in2="hardAlpha" operator="out"/>
<feColorMatrix type="matrix" values="0 0 0 0 1 0 0 0 0 1 0 0 0 0 1 0 0 0 0.25 0"/>
<feBlend mode="normal" in2="effect1_dropShadow_26_43" result="effect2_dropShadow_26_43"/>
<feBlend mode="normal" in="SourceGraphic" in2="effect2_dropShadow_26_43" result="shape"/>
</filter>
<filter id="filter4_dd_26_43" x="89.1288" y="0.00553894" width="61.5486" height="57.5231" filterUnits="userSpaceOnUse" color-interpolation-filters="sRGB">
<feFlood flood-opacity="0" result="BackgroundImageFix"/>
<feColorMatrix in="SourceAlpha" type="matrix" values="0 0 0 0 0 0 0 0 0 0 0 0 0 0 0 0 0 0 127 0" result="hardAlpha"/>
<feOffset/>
<feGaussianBlur stdDeviation="10"/>
<feComposite in2="hardAlpha" operator="out"/>
<feColorMatrix type="matrix" values="0 0 0 0 1 0 0 0 0 1 0 0 0 0 1 0 0 0 0.78 0"/>
<feBlend mode="normal" in2="BackgroundImageFix" result="effect1_dropShadow_26_43"/>
<feColorMatrix in="SourceAlpha" type="matrix" values="0 0 0 0 0 0 0 0 0 0 0 0 0 0 0 0 0 0 127 0" result="hardAlpha"/>
<feOffset dy="2"/>
<feGaussianBlur stdDeviation="2.35"/>
<feComposite in2="hardAlpha" operator="out"/>
<feColorMatrix type="matrix" values="0 0 0 0 1 0 0 0 0 1 0 0 0 0 1 0 0 0 0.25 0"/>
<feBlend mode="normal" in2="effect1_dropShadow_26_43" result="effect2_dropShadow_26_43"/>
<feBlend mode="normal" in="SourceGraphic" in2="effect2_dropShadow_26_43" result="shape"/>
</filter>
<filter id="filter5_dd_26_43" x="239.47" y="29.6018" width="61.659" height="73.7614" filterUnits="userSpaceOnUse" color-interpolation-filters="sRGB">
<feFlood flood-opacity="0" result="BackgroundImageFix"/>
<feColorMatrix in="SourceAlpha" type="matrix" values="0 0 0 0 0 0 0 0 0 0 0 0 0 0 0 0 0 0 127 0" result="hardAlpha"/>
<feOffset/>
<feGaussianBlur stdDeviation="10"/>
<feComposite in2="hardAlpha" operator="out"/>
<feColorMatrix type="matrix" values="0 0 0 0 1 0 0 0 0 1 0 0 0 0 1 0 0 0 0.78 0"/>
<feBlend mode="normal" in2="BackgroundImageFix" result="effect1_dropShadow_26_43"/>
<feColorMatrix in="SourceAlpha" type="matrix" values="0 0 0 0 0 0 0 0 0 0 0 0 0 0 0 0 0 0 127 0" result="hardAlpha"/>
<feOffset dy="2"/>
<feGaussianBlur stdDeviation="2.35"/>
<feComposite in2="hardAlpha" operator="out"/>
<feColorMatrix type="matrix" values="0 0 0 0 1 0 0 0 0 1 0 0 0 0 1 0 0 0 0.25 0"/>
<feBlend mode="normal" in2="effect1_dropShadow_26_43" result="effect2_dropShadow_26_43"/>
<feBlend mode="normal" in="SourceGraphic" in2="effect2_dropShadow_26_43" result="shape"/>
</filter>
<filter id="filter6_dd_26_43" x="204.676" y="29.5287" width="74.1683" height="73.3753" filterUnits="userSpaceOnUse" color-interpolation-filters="sRGB">
<feFlood flood-opacity="0" result="BackgroundImageFix"/>
<feColorMatrix in="SourceAlpha" type="matrix" values="0 0 0 0 0 0 0 0 0 0 0 0 0 0 0 0 0 0 127 0" result="hardAlpha"/>
<feOffset/>
<feGaussianBlur stdDeviation="10"/>
<feComposite in2="hardAlpha" operator="out"/>
<feColorMatrix type="matrix" values="0 0 0 0 1 0 0 0 0 1 0 0 0 0 1 0 0 0 0.78 0"/>
<feBlend mode="normal" in2="BackgroundImageFix" result="effect1_dropShadow_26_43"/>
<feColorMatrix in="SourceAlpha" type="matrix" values="0 0 0 0 0 0 0 0 0 0 0 0 0 0 0 0 0 0 127 0" result="hardAlpha"/>
<feOffset dy="2"/>
<feGaussianBlur stdDeviation="2.35"/>
<feComposite in2="hardAlpha" operator="out"/>
<feColorMatrix type="matrix" values="0 0 0 0 1 0 0 0 0 1 0 0 0 0 1 0 0 0 0.25 0"/>
<feBlend mode="normal" in2="effect1_dropShadow_26_43" result="effect2_dropShadow_26_43"/>
<feBlend mode="normal" in="SourceGraphic" in2="effect2_dropShadow_26_43" result="shape"/>
</filter>
<filter id="filter7_dd_26_43" x="164.383" y="30.1651" width="80.6576" height="73.0623" filterUnits="userSpaceOnUse" color-interpolation-filters="sRGB">
<feFlood flood-opacity="0" result="BackgroundImageFix"/>
<feColorMatrix in="SourceAlpha" type="matrix" values="0 0 0 0 0 0 0 0 0 0 0 0 0 0 0 0 0 0 127 0" result="hardAlpha"/>
<feOffset/>
<feGaussianBlur stdDeviation="10"/>
<feComposite in2="hardAlpha" operator="out"/>
<feColorMatrix type="matrix" values="0 0 0 0 1 0 0 0 0 1 0 0 0 0 1 0 0 0 0.78 0"/>
<feBlend mode="normal" in2="BackgroundImageFix" result="effect1_dropShadow_26_43"/>
<feColorMatrix in="SourceAlpha" type="matrix" values="0 0 0 0 0 0 0 0 0 0 0 0 0 0 0 0 0 0 127 0" result="hardAlpha"/>
<feOffset dy="2"/>
<feGaussianBlur stdDeviation="2.35"/>
<feComposite in2="hardAlpha" operator="out"/>
<feColorMatrix type="matrix" values="0 0 0 0 1 0 0 0 0 1 0 0 0 0 1 0 0 0 0.25 0"/>
<feBlend mode="normal" in2="effect1_dropShadow_26_43" result="effect2_dropShadow_26_43"/>
<feBlend mode="normal" in="SourceGraphic" in2="effect2_dropShadow_26_43" result="shape"/>
</filter>
<filter id="filter8_dd_26_43" x="133.777" y="30.2173" width="70.8994" height="72.6242" filterUnits="userSpaceOnUse" color-interpolation-filters="sRGB">
<feFlood flood-opacity="0" result="BackgroundImageFix"/>
<feColorMatrix in="SourceAlpha" type="matrix" values="0 0 0 0 0 0 0 0 0 0 0 0 0 0 0 0 0 0 127 0" result="hardAlpha"/>
<feOffset/>
<feGaussianBlur stdDeviation="10"/>
<feComposite in2="hardAlpha" operator="out"/>
<feColorMatrix type="matrix" values="0 0 0 0 1 0 0 0 0 1 0 0 0 0 1 0 0 0 0.78 0"/>
<feBlend mode="normal" in2="BackgroundImageFix" result="effect1_dropShadow_26_43"/>
<feColorMatrix in="SourceAlpha" type="matrix" values="0 0 0 0 0 0 0 0 0 0 0 0 0 0 0 0 0 0 127 0" result="hardAlpha"/>
<feOffset dy="2"/>
<feGaussianBlur stdDeviation="2.35"/>
<feComposite in2="hardAlpha" operator="out"/>
<feColorMatrix type="matrix" values="0 0 0 0 1 0 0 0 0 1 0 0 0 0 1 0 0 0 0.25 0"/>
<feBlend mode="normal" in2="effect1_dropShadow_26_43" result="effect2_dropShadow_26_43"/>
<feBlend mode="normal" in="SourceGraphic" in2="effect2_dropShadow_26_43" result="shape"/>
</filter>
<filter id="filter9_dd_26_43" x="110.726" y="29.6018" width="61.659" height="73.7614" filterUnits="userSpaceOnUse" color-interpolation-filters="sRGB">
<feFlood flood-opacity="0" result="BackgroundImageFix"/>
<feColorMatrix in="SourceAlpha" type="matrix" values="0 0 0 0 0 0 0 0 0 0 0 0 0 0 0 0 0 0 127 0" result="hardAlpha"/>
<feOffset/>
<feGaussianBlur stdDeviation="10"/>
<feComposite in2="hardAlpha" operator="out"/>
<feColorMatrix type="matrix" values="0 0 0 0 1 0 0 0 0 1 0 0 0 0 1 0 0 0 0.78 0"/>
<feBlend mode="normal" in2="BackgroundImageFix" result="effect1_dropShadow_26_43"/>
<feColorMatrix in="SourceAlpha" type="matrix" values="0 0 0 0 0 0 0 0 0 0 0 0 0 0 0 0 0 0 127 0" result="hardAlpha"/>
<feOffset dy="2"/>
<feGaussianBlur stdDeviation="2.35"/>
<feComposite in2="hardAlpha" operator="out"/>
<feColorMatrix type="matrix" values="0 0 0 0 1 0 0 0 0 1 0 0 0 0 1 0 0 0 0.25 0"/>
<feBlend mode="normal" in2="effect1_dropShadow_26_43" result="effect2_dropShadow_26_43"/>
<feBlend mode="normal" in="SourceGraphic" in2="effect2_dropShadow_26_43" result="shape"/>
</filter>
<filter id="filter10_dd_26_43" x="95.2225" y="30.2069" width="54.0742" height="72.6242" filterUnits="userSpaceOnUse" color-interpolation-filters="sRGB">
<feFlood flood-opacity="0" result="BackgroundImageFix"/>
<feColorMatrix in="SourceAlpha" type="matrix" values="0 0 0 0 0 0 0 0 0 0 0 0 0 0 0 0 0 0 127 0" result="hardAlpha"/>
<feOffset/>
<feGaussianBlur stdDeviation="10"/>
<feComposite in2="hardAlpha" operator="out"/>
<feColorMatrix type="matrix" values="0 0 0 0 1 0 0 0 0 1 0 0 0 0 1 0 0 0 0.78 0"/>
<feBlend mode="normal" in2="BackgroundImageFix" result="effect1_dropShadow_26_43"/>
<feColorMatrix in="SourceAlpha" type="matrix" values="0 0 0 0 0 0 0 0 0 0 0 0 0 0 0 0 0 0 127 0" result="hardAlpha"/>
<feOffset dy="2"/>
<feGaussianBlur stdDeviation="2.35"/>
<feComposite in2="hardAlpha" operator="out"/>
<feColorMatrix type="matrix" values="0 0 0 0 1 0 0 0 0 1 0 0 0 0 1 0 0 0 0.25 0"/>
<feBlend mode="normal" in2="effect1_dropShadow_26_43" result="effect2_dropShadow_26_43"/>
<feBlend mode="normal" in="SourceGraphic" in2="effect2_dropShadow_26_43" result="shape"/>
</filter>
<filter id="filter11_dd_26_43" x="65.8743" y="30.1964" width="69.9324" height="72.6137" filterUnits="userSpaceOnUse" color-interpolation-filters="sRGB">
<feFlood flood-opacity="0" result="BackgroundImageFix"/>
<feColorMatrix in="SourceAlpha" type="matrix" values="0 0 0 0 0 0 0 0 0 0 0 0 0 0 0 0 0 0 127 0" result="hardAlpha"/>
<feOffset/>
<feGaussianBlur stdDeviation="10"/>
<feComposite in2="hardAlpha" operator="out"/>
<feColorMatrix type="matrix" values="0 0 0 0 1 0 0 0 0 1 0 0 0 0 1 0 0 0 0.78 0"/>
<feBlend mode="normal" in2="BackgroundImageFix" result="effect1_dropShadow_26_43"/>
<feColorMatrix in="SourceAlpha" type="matrix" values="0 0 0 0 0 0 0 0 0 0 0 0 0 0 0 0 0 0 127 0" result="hardAlpha"/>
<feOffset dy="2"/>
<feGaussianBlur stdDeviation="2.35"/>
<feComposite in2="hardAlpha" operator="out"/>
<feColorMatrix type="matrix" values="0 0 0 0 1 0 0 0 0 1 0 0 0 0 1 0 0 0 0.25 0"/>
<feBlend mode="normal" in2="effect1_dropShadow_26_43" result="effect2_dropShadow_26_43"/>
<feBlend mode="normal" in="SourceGraphic" in2="effect2_dropShadow_26_43" result="shape"/>
</filter>
<filter id="filter12_dd_26_43" x="31.1635" y="30.186" width="74.1265" height="72.6972" filterUnits="userSpaceOnUse" color-interpolation-filters="sRGB">
<feFlood flood-opacity="0" result="BackgroundImageFix"/>
<feColorMatrix in="SourceAlpha" type="matrix" values="0 0 0 0 0 0 0 0 0 0 0 0 0 0 0 0 0 0 127 0" result="hardAlpha"/>
<feOffset/>
<feGaussianBlur stdDeviation="10"/>
<feComposite in2="hardAlpha" operator="out"/>
<feColorMatrix type="matrix" values="0 0 0 0 1 0 0 0 0 1 0 0 0 0 1 0 0 0 0.78 0"/>
<feBlend mode="normal" in2="BackgroundImageFix" result="effect1_dropShadow_26_43"/>
<feColorMatrix in="SourceAlpha" type="matrix" values="0 0 0 0 0 0 0 0 0 0 0 0 0 0 0 0 0 0 127 0" result="hardAlpha"/>
<feOffset dy="2"/>
<feGaussianBlur stdDeviation="2.35"/>
<feComposite in2="hardAlpha" operator="out"/>
<feColorMatrix type="matrix" values="0 0 0 0 1 0 0 0 0 1 0 0 0 0 1 0 0 0 0.25 0"/>
<feBlend mode="normal" in2="effect1_dropShadow_26_43" result="effect2_dropShadow_26_43"/>
<feBlend mode="normal" in="SourceGraphic" in2="effect2_dropShadow_26_43" result="shape"/>
</filter>
<filter id="filter13_dd_26_43" x="0" y="29.6018" width="69.7192" height="73.7614" filterUnits="userSpaceOnUse" color-interpolation-filters="sRGB">
<feFlood flood-opacity="0" result="BackgroundImageFix"/>
<feColorMatrix in="SourceAlpha" type="matrix" values="0 0 0 0 0 0 0 0 0 0 0 0 0 0 0 0 0 0 127 0" result="hardAlpha"/>
<feOffset/>
<feGaussianBlur stdDeviation="10"/>
<feComposite in2="hardAlpha" operator="out"/>
<feColorMatrix type="matrix" values="0 0 0 0 1 0 0 0 0 1 0 0 0 0 1 0 0 0 0.78 0"/>
<feBlend mode="normal" in2="BackgroundImageFix" result="effect1_dropShadow_26_43"/>
<feColorMatrix in="SourceAlpha" type="matrix" values="0 0 0 0 0 0 0 0 0 0 0 0 0 0 0 0 0 0 127 0" result="hardAlpha"/>
<feOffset dy="2"/>
<feGaussianBlur stdDeviation="2.35"/>
<feComposite in2="hardAlpha" operator="out"/>
<feColorMatrix type="matrix" values="0 0 0 0 1 0 0 0 0 1 0 0 0 0 1 0 0 0 0.25 0"/>
<feBlend mode="normal" in2="effect1_dropShadow_26_43" result="effect2_dropShadow_26_43"/>
<feBlend mode="normal" in="SourceGraphic" in2="effect2_dropShadow_26_43" result="shape"/>
</filter>
</defs>
</svg>
